<svg viewBox="0 0 114 18" fill="none" xmlns="http://www.w3.org/2000/svg" preserveAspectRatio="xMidYMid meet">
<path fill-rule="evenodd" clip-rule="evenodd" d="M7.92721 1.65115C8.44827 0.449537 10.1523 0.449535 10.6734 1.65115L12.2496 5.28603L16.1936 5.66185C17.4975 5.78609 18.024 7.40674 17.0423 8.27362L14.0724 10.8959L14.9337 14.7631C15.2184 16.0415 13.8398 17.0431 12.712 16.3772L9.30029 14.363L5.88859 16.3772C4.76075 17.0431 3.38214 16.0415 3.66688 14.7631L4.52823 10.8959L1.55833 8.27362C0.576549 7.40674 1.10313 5.78609 2.40695 5.66185L6.351 5.28603L7.92721 1.65115Z" fill="#00D4FE"/>
<path fill-rule="evenodd" clip-rule="evenodd" d="M31.5037 1.65115C31.9958 0.449537 33.6051 0.449535 34.0973 1.65115L35.5859 5.28603L39.3108 5.66185C40.5422 5.78609 41.0395 7.40674 40.1123 8.27362L37.3074 10.8959L38.1209 14.7631C38.3898 16.0415 37.0878 17.0431 36.0226 16.3772L32.8005 14.363L29.5783 16.3772C28.5131 17.0431 27.2111 16.0415 27.48 14.7631L28.2935 10.8959L25.4886 8.27362C24.5614 7.40674 25.0587 5.78609 26.2901 5.66185L30.015 5.28603L31.5037 1.65115Z" fill="#00D4FE"/>
<path fill-rule="evenodd" clip-rule="evenodd" d="M55.3512 1.65115C55.9013 0.449537 57.7 0.449535 58.25 1.65115L59.9138 5.28603L64.0769 5.66185C65.4532 5.78609 66.009 7.40674 64.9727 8.27362L61.8378 10.8959L62.747 14.7631C63.0476 16.0415 61.5924 17.0431 60.4019 16.3772L56.8006 14.363L53.1994 16.3772C52.0089 17.0431 50.5537 16.0415 50.8542 14.7631L51.7634 10.8959L48.6285 8.27362C47.5922 7.40674 48.1481 5.78609 49.5243 5.66185L53.6875 5.28603L55.3512 1.65115Z" fill="#00D4FE"/>
<path fill-rule="evenodd" clip-rule="evenodd" d="M79.5037 1.65115C79.9958 0.449537 81.6051 0.449535 82.0973 1.65115L83.5859 5.28603L87.3108 5.66185C88.5422 5.78609 89.0395 7.40674 88.1123 8.27362L85.3074 10.8959L86.1209 14.7631C86.3898 16.0415 85.0878 17.0431 84.0226 16.3772L80.8005 14.363L77.5783 16.3772C76.5131 17.0431 75.2111 16.0415 75.48 14.7631L76.2935 10.8959L73.4886 8.27362C72.5614 7.40674 73.0587 5.78609 74.2901 5.66185L78.015 5.28603L79.5037 1.65115Z" fill="#00D4FE"/>
<path fill-rule="evenodd" clip-rule="evenodd" d="M102.927 1.65115C103.448 0.449537 105.152 0.449535 105.673 1.65115L107.25 5.28603L111.194 5.66185C112.497 5.78609 113.024 7.40674 112.042 8.27362L109.072 10.8959L109.934 14.7631C110.218 16.0415 108.84 17.0431 107.712 16.3772L104.3 14.363L100.889 16.3772C99.7607 17.0431 98.3821 16.0415 98.6669 14.7631L99.5282 10.8959L96.5583 8.27362C95.5765 7.40674 96.1031 5.78609 97.4069 5.66185L101.351 5.28603L102.927 1.65115ZM105.877 5.88144L104.3 2.24657L102.724 5.88144C102.507 6.38155 102.036 6.7242 101.493 6.7759L97.5489 7.15173L100.519 9.77403C100.927 10.1348 101.108 10.6892 100.989 11.2213L100.128 15.0884L103.539 13.0742C104.009 12.7971 104.592 12.7971 105.061 13.0742L108.473 15.0884L107.612 11.2213C107.493 10.6892 107.673 10.1348 108.082 9.77403L111.052 7.15173L107.108 6.7759C106.565 6.7242 106.093 6.38155 105.877 5.88144Z" fill="white"/>
</svg>
