<svg width="25" height="24" viewBox="0 0 25 24" fill="none" xmlns="http://www.w3.org/2000/svg">
<g filter="url(#filter0_i_323_1461)">
<path d="M24.6006 12C24.6006 18.6274 19.2279 24 12.6006 24C5.97317 24 0.600586 18.6274 0.600586 12C0.600586 5.37258 5.97317 0 12.6006 0C19.2279 0 24.6006 5.37258 24.6006 12Z" fill="black"/>
</g>
<path d="M12.6006 0.5C18.9518 0.5 24.1006 5.64872 24.1006 12C24.1006 18.3512 18.9518 23.5 12.6006 23.5C6.24931 23.5 1.10059 18.3512 1.10059 12C1.10059 5.64872 6.24931 0.5 12.6006 0.5Z" stroke="url(#paint0_linear_323_1461)"/>
<path d="M16.5186 8.71729C16.6748 8.56125 16.9278 8.56113 17.084 8.71729C17.24 8.87345 17.24 9.12658 17.084 9.28271L11.084 15.2827C10.9278 15.4389 10.6748 15.4388 10.5186 15.2827L8.11816 12.8833C7.96195 12.7271 7.96195 12.4731 8.11816 12.3169C8.27428 12.161 8.52743 12.1611 8.68359 12.3169L10.8008 14.4341L13.8359 11.3989L16.5186 8.71729Z" fill="black" stroke="url(#paint1_linear_323_1461)"/>
<defs>
<filter id="filter0_i_323_1461" x="0.600586" y="0" width="24" height="24" filterUnits="userSpaceOnUse" color-interpolation-filters="sRGB">
<feFlood flood-opacity="0" result="BackgroundImageFix"/>
<feBlend mode="normal" in="SourceGraphic" in2="BackgroundImageFix" result="shape"/>
<feColorMatrix in="SourceAlpha" type="matrix" values="0 0 0 0 0 0 0 0 0 0 0 0 0 0 0 0 0 0 127 0" result="hardAlpha"/>
<feOffset/>
<feGaussianBlur stdDeviation="15"/>
<feComposite in2="hardAlpha" operator="arithmetic" k2="-1" k3="1"/>
<feColorMatrix type="matrix" values="0 0 0 0 0.0392157 0 0 0 0 0.486275 0 0 0 0 1 0 0 0 0.8 0"/>
<feBlend mode="normal" in2="shape" result="effect1_innerShadow_323_1461"/>
</filter>
<linearGradient id="paint0_linear_323_1461" x1="12.6006" y1="0" x2="12.6006" y2="24" gradientUnits="userSpaceOnUse">
<stop stop-color="#42E8E0"/>
<stop offset="1" stop-color="#00D4FE"/>
</linearGradient>
<linearGradient id="paint1_linear_323_1461" x1="12.601" y1="8.1001" x2="12.601" y2="15.9001" gradientUnits="userSpaceOnUse">
<stop stop-color="#42E8E0"/>
<stop offset="1" stop-color="#00D4FE"/>
</linearGradient>
</defs>
</svg>
