<svg xmlns="http://www.w3.org/2000/svg" width="40" height="40" viewBox="0 0 40 40" fill="none">
  <path d="M33.3333 11.6667H31.6667V6.66667C31.6667 6.22464 31.4911 5.80072 31.1785 5.48816C30.8659 5.17559 30.442 5 30 5H6.66666C5.78261 5 4.93476 5.35119 4.30964 5.97631C3.68452 6.60143 3.33333 7.44928 3.33333 8.33333V31.6667C3.33333 32.5507 3.68452 33.3986 4.30964 34.0237C4.93476 34.6488 5.78261 35 6.66666 35H31.6667C32.5507 35 33.3986 34.6488 34.0237 34.0237C34.6488 33.3986 35 32.5507 35 31.6667V13.3333C35 12.8913 34.8244 12.4674 34.5118 12.1548C34.1993 11.8423 33.7754 11.6667 33.3333 11.6667Z" fill="url(#paint0_linear_38_3874)"/>
  <path d="M31.6667 6.66667V11.6667H6.66666C5.78261 11.6667 4.93476 11.3155 4.30964 10.6904C3.68452 10.0652 3.33333 9.21739 3.33333 8.33333C3.33333 7.44928 3.68452 6.60143 4.30964 5.97631C4.93476 5.35119 5.78261 5 6.66666 5H30C30.442 5 30.8659 5.17559 31.1785 5.48816C31.4911 5.80072 31.6667 6.22464 31.6667 6.66667ZM35 20H28.3333C27.8913 20 27.4674 20.1756 27.1548 20.4882C26.8423 20.8007 26.6667 21.2246 26.6667 21.6667V25C26.6667 25.442 26.8423 25.866 27.1548 26.1785C27.4674 26.4911 27.8913 26.6667 28.3333 26.6667H35C35.442 26.6667 35.8659 26.4911 36.1785 26.1785C36.4911 25.866 36.6667 25.442 36.6667 25V21.6667C36.6667 21.2246 36.4911 20.8007 36.1785 20.4882C35.8659 20.1756 35.442 20 35 20Z" fill="#1DA5F4"/>
  <defs>
    <linearGradient id="paint0_linear_38_3874" x1="19.1667" y1="5" x2="19.1667" y2="35" gradientUnits="userSpaceOnUse">
      <stop stop-color="#00D4FE"/>
      <stop offset="1" stop-color="#574CE3"/>
    </linearGradient>
  </defs>
</svg>