<svg width="84" height="58" viewBox="0 0 84 58" fill="none" xmlns="http://www.w3.org/2000/svg">
<rect x="0.5" y="0.5" width="83" height="57" rx="3.5" fill="white" stroke="#F3F3F3"/>
<path fill-rule="evenodd" clip-rule="evenodd" d="M12.7915 35.0969C12.7915 33.9595 12.198 34.0342 11.6302 34.0222V33.6935C12.1225 33.7174 12.6273 33.7174 13.1209 33.7174C13.6512 33.7174 14.3712 33.6935 15.3066 33.6935C18.578 33.6935 20.3599 35.8805 20.3599 38.1202C20.3599 39.3735 19.6271 42.5221 15.1547 42.5221C14.5109 42.5221 13.9164 42.4971 13.3228 42.4971C12.7548 42.4971 12.198 42.5088 11.6302 42.5221V42.1931C12.3874 42.1165 12.7548 42.0917 12.7915 41.2318V35.0969ZM14.0296 41.0288C14.0296 42.0032 14.7251 42.1165 15.3439 42.1165C18.0734 42.1165 18.9691 40.0553 18.9691 38.171C18.9691 35.8057 17.4534 34.0986 15.0155 34.0986C14.4964 34.0986 14.2575 34.1356 14.0296 34.1491V41.0288Z" fill="#1A1919"/>
<path fill-rule="evenodd" clip-rule="evenodd" d="M20.8025 42.1931H21.0419C21.3955 42.1931 21.6484 42.1931 21.6484 41.7747V38.3473C21.6484 37.7917 21.4592 37.7148 20.9911 37.4626V37.2607C21.5849 37.082 22.2929 36.8434 22.3429 36.8053C22.4319 36.7545 22.5066 36.741 22.5708 36.741C22.6328 36.741 22.6588 36.8171 22.6588 36.9192V41.7747C22.6588 42.1931 22.9372 42.1931 23.2914 42.1931H23.5053V42.5221C23.0756 42.5221 22.6328 42.4971 22.1795 42.4971C21.7247 42.4971 21.2696 42.5088 20.8025 42.5221V42.1931ZM22.154 34.7939C21.8248 34.7939 21.535 34.4904 21.535 34.1616C21.535 33.8448 21.8386 33.5533 22.154 33.5533C22.4819 33.5533 22.7733 33.8198 22.7733 34.1616C22.7733 34.5037 22.4946 34.7939 22.154 34.7939Z" fill="#1A1919"/>
<path fill-rule="evenodd" clip-rule="evenodd" d="M24.7059 38.4234C24.7059 37.9563 24.5664 37.8299 23.9736 37.5892V37.349C24.5159 37.1721 25.0335 37.007 25.6405 36.741C25.6788 36.741 25.7155 36.7663 25.7155 36.8673V37.6898C26.4367 37.1721 27.0558 36.741 27.9035 36.741C28.9758 36.741 29.3547 37.5254 29.3547 38.512V41.7747C29.3547 42.1931 29.6334 42.1931 29.9868 42.1931H30.2147V42.5221C29.771 42.5221 29.3295 42.4971 28.8751 42.4971C28.42 42.4971 27.9649 42.5088 27.5101 42.5221V42.1931H27.738C28.0919 42.1931 28.3435 42.1931 28.3435 41.7747V38.5003C28.3435 37.7784 27.9035 37.4246 27.1825 37.4246C26.7779 37.4246 26.1336 37.7528 25.7155 38.0324V41.7747C25.7155 42.1931 25.9947 42.1931 26.3485 42.1931H26.5754V42.5221C26.1336 42.5221 25.6913 42.4971 25.2356 42.4971C24.7818 42.4971 24.3265 42.5088 23.8721 42.5221V42.1931H24.1001C24.4534 42.1931 24.7059 42.1931 24.7059 41.7747V38.4234Z" fill="#1A1919"/>
<path fill-rule="evenodd" clip-rule="evenodd" d="M31.1749 39.0314C31.1491 39.1453 31.1491 39.3347 31.1749 39.7651C31.2493 40.9663 32.0216 41.9524 33.0312 41.9524C33.727 41.9524 34.2705 41.5728 34.7371 41.1057L34.9135 41.2828C34.3322 42.0542 33.6125 42.7123 32.5774 42.7123C30.568 42.7123 30.1639 40.7634 30.1639 39.9545C30.1639 37.4751 31.8311 36.741 32.7145 36.741C33.7389 36.741 34.8388 37.386 34.8505 38.7272C34.8505 38.804 34.8505 38.879 34.8388 38.9551L34.7246 39.0314H31.1749ZM33.4119 38.6264C33.727 38.6264 33.7639 38.4617 33.7639 38.3093C33.7639 37.6653 33.3726 37.1466 32.6648 37.1466C31.8948 37.1466 31.364 37.7148 31.2126 38.6264H33.4119Z" fill="#1A1919"/>
<path fill-rule="evenodd" clip-rule="evenodd" d="M35.1417 42.1931H35.4831C35.8354 42.1931 36.0883 42.1931 36.0883 41.7747V38.2212C36.0883 37.8299 35.6213 37.7528 35.4316 37.6517V37.4626C36.3538 37.0703 36.8593 36.741 36.9749 36.741C37.0488 36.741 37.0868 36.779 37.0868 36.9061V38.0446H37.1133C37.4282 37.5515 37.9598 36.741 38.73 36.741C39.0456 36.741 39.4494 36.9559 39.4494 37.4116C39.4494 37.7528 39.2106 38.0579 38.8569 38.0579C38.464 38.0579 38.464 37.7528 38.0214 37.7528C37.807 37.7528 37.0995 38.0446 37.0995 38.804V41.7747C37.0995 42.1931 37.3519 42.1931 37.7058 42.1931H38.4125V42.5221C37.7178 42.5088 37.189 42.4971 36.6452 42.4971C36.1271 42.4971 35.5963 42.5088 35.1417 42.5221V42.1931Z" fill="#1A1919"/>
<path fill-rule="evenodd" clip-rule="evenodd" d="M40.005 40.7634C40.1697 41.5981 40.674 42.3074 41.598 42.3074C42.3422 42.3074 42.6198 41.8515 42.6198 41.4092C42.6198 39.9159 39.8665 40.3971 39.8665 38.3609C39.8665 37.6517 40.4354 36.7412 41.8251 36.7412C42.2287 36.7412 42.7718 36.8559 43.2641 37.1091L43.3528 38.3981H43.0624C42.9362 37.6017 42.4946 37.1466 41.6851 37.1466C41.1798 37.1466 40.7003 37.4371 40.7003 37.981C40.7003 39.4618 43.6304 39.0057 43.6304 40.9916C43.6304 41.8257 42.9617 42.7123 41.4577 42.7123C40.9529 42.7123 40.3581 42.5349 39.9173 42.2819L39.7776 40.8272L40.005 40.7634Z" fill="#1A1919"/>
<path fill-rule="evenodd" clip-rule="evenodd" d="M55.0382 35.9821H54.7231C54.4826 34.5037 53.434 33.9084 52.02 33.9084C50.5655 33.9084 48.4565 34.8817 48.4565 37.9172C48.4565 40.4732 50.2764 42.3075 52.2214 42.3075C53.471 42.3075 54.5092 41.447 54.7613 40.1181L55.052 40.1936L54.7613 42.0409C54.2308 42.3702 52.8027 42.7123 51.968 42.7123C49.0131 42.7123 47.1435 40.8019 47.1435 37.9563C47.1435 35.3626 49.4554 33.5028 51.9316 33.5028C52.9544 33.5028 53.9396 33.8326 54.9125 34.1744L55.0382 35.9821Z" fill="#1A1919"/>
<path fill-rule="evenodd" clip-rule="evenodd" d="M55.4943 42.1931H55.7335C56.0884 42.1931 56.3405 42.1931 56.3405 41.7747V34.7314C56.3405 33.9084 56.1513 33.8834 55.6707 33.744V33.5413C56.1758 33.3772 56.7069 33.15 56.9728 32.9971C57.1099 32.9223 57.2119 32.8577 57.2492 32.8577C57.3264 32.8577 57.3514 32.9346 57.3514 33.0362V41.7747C57.3514 42.1931 57.6296 42.1931 57.9829 42.1931H58.1968V42.5221C57.7685 42.5221 57.3264 42.4971 56.8713 42.4971C56.4168 42.4971 55.9624 42.5088 55.4943 42.5221V42.1931Z" fill="#1A1919"/>
<path fill-rule="evenodd" clip-rule="evenodd" d="M63.6058 41.8258C63.6058 42.0542 63.7439 42.0662 63.9581 42.0662C64.1106 42.0662 64.2992 42.0542 64.4647 42.0542V42.3205C63.9211 42.3705 62.8847 42.6362 62.6443 42.7123L62.5813 42.6737V41.6491C61.8241 42.2686 61.2423 42.7123 60.3441 42.7123C59.6621 42.7123 58.9551 42.2686 58.9551 41.2076V37.9685C58.9551 37.6393 58.9049 37.323 58.1984 37.2607V37.0197C58.6535 37.0072 59.6621 36.9317 59.8268 36.9317C59.967 36.9317 59.967 37.0197 59.967 37.2985V40.5615C59.967 40.9413 59.967 42.0279 61.0659 42.0279C61.4947 42.0279 62.0632 41.6999 62.5935 41.2578V37.8544C62.5935 37.6017 61.9875 37.4626 61.5335 37.3368V37.1094C62.6693 37.0322 63.3776 36.9317 63.5038 36.9317C63.6058 36.9317 63.6058 37.0197 63.6058 37.1594V41.8258Z" fill="#1A1919"/>
<path fill-rule="evenodd" clip-rule="evenodd" d="M66.1191 37.6518C66.6242 37.2227 67.3067 36.741 68.0014 36.741C69.4672 36.741 70.3516 38.0199 70.3516 39.3983C70.3516 41.0546 69.1383 42.7123 67.3309 42.7123C66.397 42.7123 65.9042 42.4078 65.575 42.2686L65.1972 42.5596L64.9323 42.421C65.0452 41.6749 65.109 40.9413 65.109 40.1694V34.7314C65.109 33.9084 64.9188 33.8834 64.4387 33.744V33.5413C64.9445 33.3772 65.4746 33.15 65.7397 32.9971C65.8792 32.9223 65.9799 32.8577 66.0184 32.8577C66.0936 32.8577 66.1191 32.9348 66.1191 33.0362V37.6518ZM66.1191 41.0924C66.1191 41.5728 66.5742 42.383 67.4204 42.383C68.7719 42.383 69.3402 41.0546 69.3402 39.9284C69.3402 38.5628 68.3054 37.4246 67.3202 37.4246C66.8508 37.4246 66.46 37.7286 66.1191 38.0199V41.0924Z" fill="#1A1919"/>
<path fill-rule="evenodd" clip-rule="evenodd" d="M18.4354 48.7269L18.4492 48.7133V46.1331C18.4492 45.5683 18.0568 45.4858 17.8507 45.4858H17.6992V45.2792C18.0229 45.2792 18.3391 45.3065 18.6618 45.3065C18.9436 45.3065 19.2267 45.2792 19.5074 45.2792V45.4858H19.4052C19.1156 45.4858 18.7924 45.5407 18.7924 46.3598V49.4912C18.7924 49.7324 18.7991 49.9732 18.833 50.1868H18.5717L15.0321 46.2355V49.0718C15.0321 49.671 15.1484 49.8765 15.6777 49.8765H15.7948V50.0834C15.4992 50.0834 15.2039 50.0565 14.9083 50.0565C14.5997 50.0565 14.283 50.0834 13.9733 50.0834V49.8765H14.0699C14.544 49.8765 14.6884 49.553 14.6884 49.004V46.1042C14.6884 45.7192 14.3712 45.4858 14.0631 45.4858H13.9733V45.2792C14.2341 45.2792 14.5026 45.3065 14.7633 45.3065C14.9702 45.3065 15.1695 45.2792 15.3756 45.2792L18.4354 48.7269Z" fill="#1A1919"/>
<path fill-rule="evenodd" clip-rule="evenodd" d="M18.833 50.2157L18.5499 50.2061L15.0613 46.3132V49.0718C15.0696 49.6702 15.1604 49.8403 15.678 49.8468H15.8252V50.1128H15.7948C15.4974 50.1128 15.2015 50.0852 14.9083 50.0852C14.6004 50.0852 14.2845 50.1128 13.9731 50.1128H13.9429V49.8468H14.0699C14.5242 49.8442 14.654 49.5519 14.659 49.0038V46.1053C14.6577 45.7387 14.3574 45.5157 14.0634 45.5157H13.9429V45.2492H13.9731C14.2359 45.2492 14.5049 45.276 14.7628 45.276C14.9678 45.276 15.1664 45.2492 15.3982 45.2599L18.4192 48.6646V46.1331C18.4159 45.5866 18.051 45.5201 17.8509 45.5157H17.6691V45.2492H17.6995C18.0242 45.2492 18.3407 45.276 18.6617 45.276C18.9415 45.276 19.2233 45.2492 19.5074 45.2492H19.5376V45.5157H19.4052C19.1213 45.523 18.8301 45.548 18.8218 46.3598V49.4912C18.8218 49.7322 18.8293 49.9724 18.8624 50.1813L18.8686 50.2157H18.833ZM18.572 50.1558H18.7994C18.7687 49.9487 18.7632 49.7202 18.7632 49.4912V46.3598C18.7632 45.5337 19.109 45.4558 19.4052 45.4553H19.4775V45.3089C19.2066 45.3109 18.9352 45.336 18.6617 45.336C18.3469 45.336 18.0409 45.3109 17.7302 45.3089L17.7294 45.4553H17.8509C18.0622 45.4558 18.4788 45.5498 18.4788 46.1331L18.4697 48.7349L18.4562 48.7482L18.4328 48.7703L15.3756 45.3089C15.1713 45.3089 14.9725 45.336 14.7628 45.336C14.5109 45.336 14.2528 45.3109 14.0035 45.3089L14.0022 45.4553H14.0634C14.3858 45.4558 14.7175 45.7022 14.7175 46.1053V49.0038C14.7175 49.5545 14.5643 49.9062 14.0699 49.908L14.0035 49.9062V50.0539C14.3012 50.0516 14.608 50.0263 14.9083 50.0263C15.195 50.0263 15.4812 50.0516 15.7649 50.0539V49.908H15.6779C15.137 49.9062 15.003 49.6702 15.0025 49.0718V46.1584L18.572 50.1558ZM18.4356 48.7268L18.4572 48.707L18.4356 48.7268ZM18.4192 48.7133V48.7107L18.4138 48.7063L18.4192 48.7133Z" fill="#1A1919"/>
<path fill-rule="evenodd" clip-rule="evenodd" d="M20.5376 45.6233C20.0213 45.6233 20.0013 45.7478 19.8983 46.2496H19.6919C19.719 46.0568 19.7531 45.8643 19.7744 45.6647C19.802 45.4712 19.8158 45.2792 19.8158 45.0801H19.9805C20.0359 45.2867 20.2076 45.2792 20.3942 45.2792H23.9398C24.1264 45.2792 24.2978 45.2724 24.3119 45.0658L24.4761 45.0939C24.4495 45.2792 24.4214 45.4652 24.4014 45.6514C24.3879 45.8372 24.3879 46.0224 24.3879 46.2082L24.1813 46.2848C24.1672 46.0305 24.1331 45.6233 23.6726 45.6233H22.5451V49.2849C22.5451 49.8158 22.786 49.8765 23.1155 49.8765H23.2466V50.0833C22.9783 50.0833 22.4969 50.0568 22.1264 50.0568C21.7135 50.0568 21.2318 50.0833 20.9635 50.0833V49.8765H21.0947C21.4736 49.8765 21.6651 49.8426 21.6651 49.2992V45.6233H20.5376Z" fill="#1A1919"/>
<path fill-rule="evenodd" clip-rule="evenodd" d="M23.2471 50.1128C22.9763 50.1128 22.4954 50.0854 22.1264 50.0854C21.714 50.0854 21.2331 50.1128 20.9635 50.1128H20.9341V49.8468H21.0947C21.4736 49.8379 21.6258 49.833 21.6344 49.2992V45.6527H20.5376V45.5926H21.694V49.2992C21.694 49.8517 21.4715 49.9075 21.0947 49.908H20.993V50.0534C21.2641 50.0516 21.7273 50.0263 22.1264 50.0263C22.4842 50.0263 22.9435 50.0516 23.2159 50.0534V49.908H23.1155C22.7829 49.9075 22.5154 49.8257 22.5154 49.2849V45.5926H23.6726C24.1337 45.5944 24.1948 45.9867 24.2091 46.2428L24.358 46.1878C24.358 46.0081 24.3587 45.8281 24.371 45.6473C24.3913 45.4693 24.4162 45.2945 24.442 45.1182L24.3377 45.1007C24.3056 45.301 24.1118 45.3117 23.9395 45.3091H20.3583C20.1965 45.3094 20.0203 45.3016 19.9584 45.1096H19.8449C19.8439 45.2997 19.8309 45.4844 19.8048 45.6678C19.7843 45.857 19.7528 46.0386 19.7278 46.2209H19.8746C19.9649 45.7408 20.0237 45.5858 20.5376 45.5926V45.6527C20.0284 45.6629 20.0396 45.7481 19.9274 46.2566L19.9225 46.2801H19.6576L19.6612 46.2444C19.6893 46.0524 19.7242 45.8591 19.7442 45.6593C19.7728 45.4683 19.7859 45.2773 19.7859 45.0801V45.0496H20.0042L20.0094 45.0713C20.0557 45.2448 20.1829 45.2461 20.3583 45.2492H23.9395C24.1311 45.2461 24.2705 45.2435 24.2822 45.0634L24.2846 45.0309L24.3158 45.0371L24.5102 45.0679L24.5052 45.0984C24.4779 45.2831 24.4511 45.4683 24.4303 45.6527C24.4175 45.8372 24.4175 46.0222 24.4175 46.2082V46.229L24.3975 46.2371L24.1542 46.3262L24.1526 46.2863C24.1337 46.0274 24.1071 45.6527 23.6726 45.6527H22.5753V49.2849C22.582 49.8038 22.7876 49.8403 23.1155 49.8468H23.2763V50.1128H23.2471Z" fill="#1A1919"/>
<path fill-rule="evenodd" clip-rule="evenodd" d="M24.6957 49.8765H24.7925C25.0392 49.8765 25.3012 49.8426 25.3012 49.4844V45.8789C25.3012 45.5202 25.0392 45.486 24.7925 45.486H24.6957V45.2792C25.1136 45.2792 25.8302 45.3065 26.4066 45.3065C26.985 45.3065 27.699 45.2792 28.1663 45.2792C28.1544 45.5751 28.1609 46.0305 28.1812 46.3327L27.974 46.3874C27.941 45.9398 27.8585 45.5829 27.1364 45.5829H26.182V47.3849H26.9985C27.411 47.3849 27.5007 47.1518 27.5416 46.7798H27.7477C27.7339 47.0486 27.7266 47.3169 27.7266 47.585C27.7266 47.8471 27.7339 48.1084 27.7477 48.3694L27.5416 48.4106C27.5007 47.9982 27.4802 47.7299 27.0053 47.7299H26.182V49.3326C26.182 49.7806 26.5791 49.7806 27.0193 49.7806C27.8445 49.7806 28.2085 49.7252 28.4148 48.9415L28.6066 48.9889C28.5174 49.3544 28.4354 49.7181 28.3737 50.0834C27.9332 50.0834 27.1427 50.0568 26.5252 50.0568C25.9051 50.0568 25.0878 50.0834 24.6957 50.0834V49.8765Z" fill="#1A1919"/>
<path fill-rule="evenodd" clip-rule="evenodd" d="M28.3732 50.1128C27.9322 50.1128 27.1411 50.0841 26.5244 50.0841C25.9051 50.0841 25.0881 50.1128 24.6954 50.1128H24.6666V49.8468H24.7922C25.041 49.8426 25.2674 49.8208 25.2705 49.4844V45.8789C25.2674 45.5425 25.041 45.5201 24.7922 45.5157H24.6666V45.2492H24.6954C25.1154 45.2492 25.8305 45.276 26.4066 45.276C26.9845 45.276 27.6982 45.2492 28.1663 45.2492H28.1968L28.1957 45.281C28.1913 45.3839 28.1885 45.5063 28.1885 45.6358C28.1885 45.8737 28.1957 46.1344 28.2093 46.3304L28.2106 46.3548L28.1874 46.3619L27.9457 46.4252L27.9446 46.3897C27.9041 45.9432 27.8442 45.6184 27.1364 45.6116H26.2098L26.2093 47.3547H26.9983C27.3946 47.3505 27.4653 47.1479 27.5122 46.7766L27.5137 46.749H27.7781L27.7776 46.7805C27.7643 47.0494 27.7563 47.3169 27.7563 47.585C27.7563 47.8453 27.7643 48.1066 27.7776 48.3681L27.7781 48.3931L27.7531 48.3989L27.5137 48.4465L27.5122 48.4142C27.4646 47.994 27.4614 47.7637 27.0053 47.7588H26.2098V49.3325C26.2109 49.7509 26.571 49.7486 27.0191 49.7509C27.8468 49.746 28.1783 49.7053 28.3854 48.9334L28.3925 48.9056L28.4213 48.9102L28.6417 48.9676L28.6355 48.996C28.5462 49.3602 28.4643 49.7241 28.4021 50.0883L28.3969 50.1128H28.3732ZM28.3477 50.0534C28.4078 49.7053 28.4861 49.3578 28.5704 49.0113L28.4351 48.9772C28.2293 49.747 27.8304 49.8158 27.0191 49.8106C26.5858 49.8106 26.1529 49.8106 26.1505 49.3325V47.6999H27.0053C27.4854 47.6949 27.5338 47.9846 27.5681 48.3762L27.7164 48.3457C27.7032 48.092 27.6964 47.8372 27.6964 47.585C27.6964 47.3266 27.7032 47.0687 27.7164 46.8089H27.5681C27.5293 47.1684 27.4172 47.4193 26.9983 47.4149H26.1505V45.5519H27.1364C27.8512 45.5462 27.9696 45.9166 28.0008 46.3496L28.1489 46.3092C28.1369 46.1152 28.1289 45.8656 28.1289 45.6358C28.1289 45.5181 28.132 45.4063 28.1359 45.3089C27.6688 45.3109 26.9717 45.336 26.4066 45.336C25.8416 45.336 25.1464 45.3109 24.7256 45.3089V45.4553H24.7922C25.0368 45.4558 25.3293 45.4983 25.3309 45.8789V49.4844C25.3293 49.8643 25.0368 49.9062 24.7922 49.908H24.7256V50.0534C25.1258 50.0521 25.9205 50.0263 26.5244 50.0263C27.1312 50.0263 27.9046 50.0521 28.3477 50.0534Z" fill="#1A1919"/>
<path fill-rule="evenodd" clip-rule="evenodd" d="M29.535 46.0081C29.535 45.5063 29.2597 45.4858 29.0464 45.4858H28.9222V45.2792C29.1424 45.2792 29.5686 45.3065 29.9883 45.3065C30.4 45.3065 30.7304 45.2792 31.0947 45.2792C31.9596 45.2792 32.7312 45.5129 32.7312 46.4908C32.7312 47.1098 32.3185 47.4878 31.7757 47.7025L32.9505 49.4633C33.1436 49.7546 33.2799 49.8361 33.6177 49.8765V50.0834C33.3903 50.0834 33.1704 50.0568 32.9443 50.0568C32.7312 50.0568 32.5102 50.0834 32.2982 50.0834C31.7684 49.3886 31.3143 48.6456 30.8678 47.8528H30.4148V49.3266C30.4148 49.8565 30.6617 49.8765 30.9768 49.8765H31.1015V50.0834C30.7088 50.0834 30.3117 50.0568 29.9191 50.0568C29.5892 50.0568 29.266 50.0834 28.9222 50.0834V49.8765H29.0464C29.3016 49.8765 29.535 49.7601 29.535 49.5058V46.0081ZM30.4148 47.6045H30.7507C31.439 47.6045 31.8095 47.3438 31.8095 46.5312C31.8095 45.9193 31.4176 45.5269 30.8051 45.5269C30.5988 45.5269 30.5108 45.548 30.4148 45.5548V47.6045Z" fill="#1A1919"/>
<path fill-rule="evenodd" clip-rule="evenodd" d="M33.6177 50.1128C33.3871 50.1128 33.1686 50.0852 32.9424 50.0852C32.733 50.0852 32.5131 50.1128 32.2737 50.1013C31.7463 49.4084 31.2943 48.6695 30.8504 47.8838H30.4442V49.3252C30.4517 49.8434 30.6591 49.8395 30.9768 49.8468H31.1311V50.1128H31.1007C30.7078 50.1128 30.3084 50.0852 29.9188 50.0852C29.5905 50.0852 29.2675 50.1128 28.9222 50.1128H28.8923V49.8468H29.0464C29.2936 49.845 29.5025 49.7371 29.5035 49.5058V46.0081C29.4983 45.5201 29.2597 45.5225 29.0464 45.5157H28.8923V45.2492H28.9222C29.1447 45.2492 29.5691 45.276 29.9883 45.276C30.3987 45.276 30.7283 45.2492 31.0947 45.2492C31.9615 45.251 32.759 45.4899 32.7611 46.4898C32.7611 47.1109 32.351 47.499 31.8209 47.7155L32.9752 49.4469C33.1675 49.7324 33.2872 49.8038 33.6216 49.8468L33.6466 49.8507V50.1128H33.6177ZM30.4145 47.8231H30.8842L30.8928 47.8385C31.3403 48.6291 31.7921 49.3724 32.2982 50.0539C32.5074 50.0539 32.7283 50.0263 32.9424 50.0263C33.1618 50.0263 33.3741 50.0503 33.5875 50.0534V49.9023C33.2654 49.863 33.1139 49.7655 32.9263 49.4803L31.7296 47.6887L31.7634 47.6749C32.3018 47.4626 32.7007 47.095 32.701 46.4898C32.7007 45.535 31.9589 45.3136 31.0947 45.3089C30.7328 45.3089 30.4023 45.3367 29.9883 45.3367C29.5845 45.3367 29.1765 45.3109 28.9516 45.3089V45.4553H29.0464C29.2597 45.4558 29.5634 45.4912 29.5634 46.0081V49.5058C29.5634 49.7819 29.305 49.9075 29.0464 49.908H28.9516V50.0534C29.2821 50.0521 29.5959 50.0263 29.9188 50.0263C30.3026 50.0263 30.6909 50.0521 31.071 50.0534V49.908H30.9768C30.6638 49.9075 30.3841 49.8687 30.3841 49.3253V47.8231H30.4145ZM30.4145 47.6342H30.3841V45.5269L30.4104 45.5248C30.5046 45.5173 30.5972 45.4983 30.8051 45.4983C31.4312 45.4983 31.8389 45.9054 31.8394 46.533C31.8376 47.3547 31.4442 47.634 30.7507 47.6342H30.4145ZM30.7507 47.5756C31.4312 47.5688 31.7741 47.3326 31.7809 46.533C31.7767 45.9318 31.4038 45.5587 30.8051 45.5561C30.6196 45.5561 30.5319 45.5733 30.4442 45.5819V47.5756H30.7507Z" fill="#1A1919"/>
<path fill-rule="evenodd" clip-rule="evenodd" d="M38.2847 48.7269L38.2967 48.7133V46.1331C38.2967 45.5683 37.9061 45.4858 37.6998 45.4858H37.5491V45.2792C37.8723 45.2792 38.1874 45.3065 38.5114 45.3065C38.794 45.3065 39.0737 45.2792 39.3576 45.2792V45.4858H39.254C38.9652 45.4858 38.6423 45.5407 38.6423 46.3598V49.4912C38.6423 49.7324 38.649 49.9732 38.6829 50.1868H38.4227L34.8828 46.2355V49.0718C34.8828 49.671 34.9988 49.8765 35.5281 49.8765H35.6452V50.0834C35.3499 50.0834 35.0538 50.0565 34.7584 50.0565C34.448 50.0565 34.1324 50.0834 33.8232 50.0834V49.8765H33.9187C34.3933 49.8765 34.5385 49.553 34.5385 49.004V46.1042C34.5385 45.7192 34.2219 45.4858 33.9127 45.4858H33.8232V45.2792C34.0834 45.2792 34.3535 45.3065 34.6143 45.3065C34.8185 45.3065 35.0189 45.2792 35.2255 45.2792L38.2847 48.7269Z" fill="#1A1919"/>
<path fill-rule="evenodd" clip-rule="evenodd" d="M38.6826 50.2157L38.4003 50.2061L34.9112 46.3137V49.0715C34.9192 49.671 35.0098 49.8403 35.5281 49.8468H35.6738V50.1128H35.6439C35.3468 50.1128 35.0517 50.0841 34.7571 50.0841C34.4503 50.0841 34.1326 50.1128 33.823 50.1128H33.7923V49.8468H33.9187C34.3728 49.845 34.5029 49.5519 34.5073 49.0022V46.1042C34.5065 45.7374 34.2068 45.5157 33.9128 45.5157H33.7923V45.2492H33.823C34.0855 45.2492 34.3546 45.276 34.614 45.276C34.8159 45.276 35.015 45.2492 35.2455 45.2581L38.2676 48.6646V46.1331C38.2658 45.5866 37.8996 45.5188 37.6998 45.5157H37.5184V45.2492H37.5484C37.8731 45.2492 38.19 45.276 38.5114 45.276C38.7914 45.276 39.0729 45.2492 39.3563 45.2492H39.3867V45.5157H39.254C38.9704 45.5225 38.6782 45.548 38.6714 46.3598V49.4912C38.6714 49.7322 38.6774 49.9708 38.7125 50.1818L38.7159 50.2157H38.6826ZM38.4224 50.1558H38.6477C38.6176 49.95 38.6116 49.7202 38.6116 49.4912V46.3598C38.6121 45.5337 38.9597 45.4571 39.254 45.4553H39.3264V45.3089C39.0557 45.3109 38.7841 45.336 38.5114 45.336C38.1955 45.336 37.8892 45.3109 37.5783 45.3089V45.4553H37.6998C37.9116 45.4571 38.3279 45.5498 38.3279 46.1331L38.3181 48.7349L38.3056 48.7482L38.284 48.7709L35.2255 45.3089C35.021 45.3089 34.8217 45.336 34.614 45.336C34.359 45.336 34.1022 45.3109 33.8524 45.3089V45.4553H33.9128C34.2362 45.4571 34.5669 45.7012 34.5669 46.1042V49.0022C34.5669 49.5545 34.4116 49.9062 33.9187 49.908L33.8524 49.9075V50.0537C34.1493 50.0516 34.4555 50.0263 34.7571 50.0263C35.0454 50.0263 35.3311 50.0516 35.6153 50.0537V49.908H35.5281C34.9871 49.9075 34.8524 49.671 34.8508 49.0715V46.1594L38.4224 50.1558ZM38.284 48.7268L38.3063 48.707L38.284 48.7268ZM38.2676 48.7133V48.7115L38.2626 48.7063L38.2676 48.7133Z" fill="#1A1919"/>
<path fill-rule="evenodd" clip-rule="evenodd" d="M40.4627 49.0994C40.3935 49.3325 40.3105 49.5133 40.3105 49.6355C40.3105 49.8426 40.6001 49.8768 40.8262 49.8768H40.903V50.0834C40.6269 50.0685 40.3464 50.0568 40.0698 50.0568C39.8223 50.0568 39.5762 50.0685 39.3279 50.0834V49.8768H39.3698C39.6373 49.8768 39.865 49.7181 39.967 49.4289L41.0669 46.271C41.1567 46.0156 41.2805 45.6718 41.3224 45.4165C41.541 45.3412 41.8171 45.2044 41.9472 45.1208C41.9685 45.1137 41.9813 45.1067 42.0021 45.1067C42.0229 45.1067 42.0356 45.1067 42.0507 45.1283C42.071 45.1828 42.0911 45.2448 42.1124 45.2997L43.3778 48.8998C43.4603 49.14 43.542 49.3946 43.6299 49.6022C43.7137 49.7952 43.8581 49.8768 44.0858 49.8768H44.1269V50.0834C43.8173 50.0685 43.5071 50.0568 43.1787 50.0568C42.8418 50.0568 42.497 50.0685 42.1465 50.0834V49.8768H42.2222C42.3794 49.8768 42.6492 49.8494 42.6492 49.6772C42.6492 49.5884 42.587 49.4024 42.5103 49.1812L42.2425 48.3832H40.6823L40.4627 49.0994ZM41.4663 46.0503H41.452L40.8132 47.9982H42.0976L41.4663 46.0503Z" fill="#1A1919"/>
<path fill-rule="evenodd" clip-rule="evenodd" d="M44.1248 50.1128C43.816 50.0995 43.5061 50.0841 43.1787 50.0841C42.8418 50.0841 42.4988 50.0995 42.148 50.1128L42.1163 50.1144V49.8455H42.2222C42.3815 49.8455 42.6177 49.8098 42.6182 49.6772C42.6198 49.5988 42.5581 49.4102 42.4824 49.1913L42.2206 48.4127H40.7044L40.4905 49.1082C40.4213 49.3422 40.3378 49.524 40.3391 49.6361C40.3414 49.8041 40.598 49.8455 40.8262 49.8455H40.9318V50.1144L40.9006 50.1128C40.6258 50.0995 40.3453 50.0841 40.0703 50.0841C39.8249 50.0841 39.5764 50.0995 39.3303 50.1128L39.2983 50.1144V49.8455H39.3696C39.6251 49.845 39.8385 49.6988 39.9379 49.4193L41.0388 46.2603C41.1275 46.0055 41.2524 45.6632 41.3117 45.3881C41.5275 45.3149 41.8041 45.176 41.936 45.0929C41.9552 45.0861 41.9742 45.0773 42.0018 45.0773C42.0187 45.0762 42.0557 45.0807 42.0781 45.1166C42.0976 45.1731 42.1194 45.2349 42.1402 45.2904L43.4059 48.8899C43.4868 49.1309 43.569 49.3852 43.6591 49.5892C43.7387 49.7726 43.8649 49.845 44.0858 49.8455H44.1553V50.1144L44.1248 50.1128ZM42.1764 50.0516C42.5165 50.0396 42.8503 50.0263 43.1787 50.0263C43.4975 50.0263 43.7972 50.0396 44.096 50.0516V49.9075H44.0858C43.8501 49.9091 43.688 49.8163 43.6036 49.6134C43.5141 49.4055 43.4306 49.1499 43.3494 48.9089L42.0838 45.3091C42.063 45.2542 42.0434 45.1927 42.0255 45.1437C42.0187 45.1369 42.0203 45.1369 42.0148 45.1369H42.0018C41.988 45.1369 41.9797 45.1411 41.962 45.1455C41.8298 45.2315 41.5543 45.3672 41.3497 45.4209C41.3078 45.6817 41.184 46.0255 41.0947 46.2806L39.9948 49.4388C39.8902 49.7379 39.6485 49.908 39.3696 49.9075H39.3581V50.0516C39.5939 50.0396 39.8317 50.0263 40.0703 50.0263C40.3362 50.0263 40.6074 50.0396 40.8704 50.0516V49.9075H40.8262C40.6016 49.9044 40.2889 49.8799 40.2811 49.6361C40.2816 49.4995 40.3659 49.3234 40.4333 49.0908L40.4624 49.0994L40.4333 49.09L40.6597 48.3546H42.2625L42.5378 49.1718C42.6151 49.3932 42.6776 49.5767 42.6776 49.6772C42.6674 49.888 42.3781 49.9036 42.2222 49.9075H42.1764V50.0516ZM40.7713 48.0279L41.4294 46.0198H41.4663V46.0503L41.459 46.0524L41.4663 46.0503V46.0198H41.4869L42.1402 48.0279H40.7713ZM40.8535 47.9677H42.057L41.4588 46.1235L40.8535 47.9677ZM41.4364 46.0591L41.4523 46.0542L41.4364 46.0591Z" fill="#1A1919"/>
<path fill-rule="evenodd" clip-rule="evenodd" d="M44.429 45.6233C43.9135 45.6233 43.8927 45.7478 43.7892 46.2496H43.5826C43.6096 46.0568 43.6447 45.8643 43.6661 45.6647C43.6929 45.4712 43.7062 45.2792 43.7062 45.0801H43.8724C43.9263 45.2867 44.0985 45.2792 44.2841 45.2792H47.8317C48.0165 45.2792 48.1882 45.2724 48.2018 45.0658L48.3662 45.0939C48.3407 45.2792 48.3134 45.4652 48.2918 45.6514C48.2767 45.8372 48.2767 46.0224 48.2767 46.2082L48.0714 46.2848C48.0592 46.0305 48.0246 45.6233 47.5629 45.6233H46.4357V49.2849C46.4357 49.8158 46.6767 49.8765 47.0061 49.8765H47.1375V50.0833C46.869 50.0833 46.3886 50.0568 46.0165 50.0568C45.6049 50.0568 45.1225 50.0833 44.8545 50.0833V49.8765H44.9853C45.3642 49.8765 45.556 49.8426 45.556 49.2992V45.6233H44.429Z" fill="#1A1919"/>
<path fill-rule="evenodd" clip-rule="evenodd" d="M47.1375 50.1128C46.8674 50.1128 46.3855 50.0854 46.016 50.0854C45.6054 50.0854 45.124 50.1128 44.8547 50.1128H44.8243V49.8468H44.9853C45.3645 49.8379 45.5164 49.833 45.5255 49.2992L45.525 45.6527H44.429V45.5926H45.5856V49.2992C45.5856 49.8517 45.3629 49.9062 44.9853 49.9075H44.8841V50.0539C45.1558 50.0516 45.6176 50.0263 46.016 50.0263C46.3754 50.0263 46.8354 50.0516 47.1068 50.0539V49.9075H47.0058C46.6746 49.9062 46.4068 49.8265 46.4063 49.2849V45.5926H47.5629C48.0248 45.5944 48.0849 45.9867 48.0982 46.2428L48.2476 46.1878C48.2476 46.0081 48.2486 45.8281 48.2626 45.648C48.2811 45.4706 48.3071 45.2945 48.3321 45.1189L48.2283 45.1007C48.1968 45.301 48.0027 45.3122 47.8317 45.3091H44.2489C44.0868 45.3109 43.9115 45.3016 43.849 45.109H43.7366C43.735 45.2995 43.7215 45.4844 43.6944 45.6678C43.6757 45.8578 43.6427 46.0399 43.6164 46.2209H43.7642C43.8545 45.7408 43.9141 45.585 44.429 45.5926V45.6527C43.9193 45.6616 43.9305 45.7481 43.8183 46.2566L43.8134 46.2801H43.548L43.5521 46.2459C43.581 46.0524 43.6148 45.8591 43.6349 45.6608C43.663 45.4683 43.6757 45.2773 43.6757 45.0801V45.0496H43.894L43.8998 45.0713C43.9479 45.2448 44.073 45.2461 44.2489 45.2492H47.8317C48.022 45.2461 48.1606 45.2435 48.1729 45.064L48.1739 45.0309L48.2059 45.0371L48.4011 45.0679L48.3964 45.0984C48.368 45.2831 48.342 45.4683 48.3212 45.6527C48.3071 45.8372 48.3071 46.0224 48.3071 46.2082V46.229L48.2871 46.2371L48.0438 46.3262L48.0428 46.2863C48.0248 46.0274 47.9975 45.6527 47.5629 45.6527H46.4654V49.2849C46.4724 49.8038 46.6782 49.8403 47.0058 49.8468H47.1661V50.1128H47.1375Z" fill="#1A1919"/>
<path fill-rule="evenodd" clip-rule="evenodd" d="M48.6207 49.8765H48.717C48.9647 49.8765 49.2249 49.8426 49.2249 49.4844V45.8789C49.2249 45.5202 48.9647 45.486 48.717 45.486H48.6207V45.2792C48.889 45.2792 49.3006 45.3065 49.6371 45.3065C49.9816 45.3065 50.3943 45.2792 50.718 45.2792V45.486H50.6214C50.3729 45.486 50.1117 45.5202 50.1117 45.8789V49.4844C50.1117 49.8426 50.3729 49.8765 50.6214 49.8765H50.718V50.0834C50.3878 50.0834 49.9748 50.0568 49.6316 50.0568C49.2941 50.0568 48.889 50.0834 48.6207 50.0834V49.8765Z" fill="#1A1919"/>
<path fill-rule="evenodd" clip-rule="evenodd" d="M50.718 50.1128C50.3857 50.1128 49.9745 50.0841 49.6316 50.0841C49.2951 50.0841 48.8892 50.1128 48.6207 50.1128H48.5913V49.8468H48.7172C48.9649 49.8426 49.1934 49.8208 49.195 49.4844V45.8789C49.1934 45.5425 48.9649 45.5201 48.7172 45.5157H48.5913V45.2492H48.6207C48.8892 45.2492 49.3027 45.276 49.6371 45.276C49.9797 45.276 50.3922 45.2492 50.718 45.2492H50.7466V45.5157H50.6217C50.3701 45.5201 50.1439 45.5425 50.1416 45.8789V49.4844C50.1439 49.8208 50.3701 49.8426 50.6217 49.8468H50.7466V50.1128H50.718ZM50.6867 50.0534V49.9075H50.6217C50.375 49.9075 50.0833 49.8643 50.0833 49.4844V45.8789C50.0833 45.4983 50.375 45.4558 50.6217 45.4553H50.6867V45.3089C50.3698 45.3109 49.9717 45.336 49.6371 45.336C49.3108 45.336 48.9173 45.3109 48.6506 45.3089V45.4553H48.7172C48.9613 45.4558 49.2543 45.4983 49.2551 45.8789V49.4844C49.2543 49.8643 48.9613 49.9075 48.7172 49.9075H48.6506V50.0534C48.9155 50.0503 49.3042 50.0263 49.6316 50.0263C49.9649 50.0263 50.3625 50.0516 50.6867 50.0534Z" fill="#1A1919"/>
<path fill-rule="evenodd" clip-rule="evenodd" d="M53.459 45.176C54.9245 45.176 56.0925 46.0855 56.0925 47.5514C56.0925 49.1345 54.958 50.1868 53.4944 50.1868C52.0364 50.1868 50.9233 49.1955 50.9233 47.7155C50.9233 46.2848 52.0297 45.176 53.459 45.176ZM53.5628 49.8838C54.8969 49.8838 55.1295 48.706 55.1295 47.7025C55.1295 46.6966 54.5878 45.479 53.446 45.479C52.2433 45.479 51.8855 46.5528 51.8855 47.4743C51.8855 48.706 52.4496 49.8838 53.5628 49.8838Z" fill="#1A1919"/>
<path fill-rule="evenodd" clip-rule="evenodd" d="M50.8926 47.7155C50.8954 46.2681 52.0146 45.1484 53.4587 45.146V45.2062C52.0455 45.2062 50.9524 46.2999 50.9509 47.7155C50.9537 49.1788 52.0507 50.1553 53.4946 50.1558C54.9435 50.1553 56.0616 49.1181 56.0634 47.5503C56.0621 46.1027 54.9125 45.2075 53.4587 45.2062V45.146C54.9346 45.1476 56.1193 46.0659 56.1219 47.5503C56.1204 49.1499 54.9724 50.2131 53.4946 50.2157C52.0242 50.2131 50.8954 49.2119 50.8926 47.7155ZM51.8553 47.4743C51.8574 46.5481 52.2183 45.4482 53.4457 45.4482C54.613 45.4508 55.1574 46.6912 55.1597 47.7025C55.1574 48.706 54.9216 49.9119 53.5631 49.9119V49.8536C54.8701 49.8525 55.0972 48.706 55.0993 47.7025C55.0993 46.7055 54.563 45.5108 53.4457 45.5089C52.2665 45.5102 51.918 46.5575 51.9149 47.4743C51.9154 48.7003 52.4744 49.8518 53.5631 49.8536V49.9119C52.4221 49.9109 51.8574 48.7133 51.8553 47.4743Z" fill="#1A1919"/>
<path fill-rule="evenodd" clip-rule="evenodd" d="M60.7247 48.7269L60.7391 48.7133V46.1331C60.7391 45.5683 60.3459 45.4858 60.1398 45.4858H59.9902V45.2792C60.3123 45.2792 60.6292 45.3065 60.9514 45.3065C61.234 45.3065 61.5158 45.2792 61.7978 45.2792V45.4858H61.6945C61.4065 45.4858 61.082 45.5407 61.082 46.3598V49.4912C61.082 49.7324 61.0893 49.9732 61.1242 50.1868H60.8626L57.3218 46.2355V49.0718C57.3218 49.671 57.4391 49.8765 57.9673 49.8765H58.0852V50.0834C57.7893 50.0834 57.4943 50.0565 57.1987 50.0565C56.889 50.0565 56.5726 50.0834 56.2632 50.0834V49.8765H56.3598C56.8349 49.8765 56.9783 49.553 56.9783 49.004V46.1042C56.9783 45.7192 56.6632 45.4858 56.3522 45.4858H56.2632V45.2792C56.5245 45.2792 56.7922 45.3065 57.054 45.3065C57.2598 45.3065 57.4581 45.2792 57.6652 45.2792L60.7247 48.7269Z" fill="#1A1919"/>
<path fill-rule="evenodd" clip-rule="evenodd" d="M61.1244 50.2157L60.84 50.2061L57.3514 46.3137V49.0718C57.3595 49.671 57.4503 49.8395 57.9666 49.8455H58.1146V50.1128H58.0855C57.7878 50.1128 57.4927 50.0852 57.1987 50.0852C56.8906 50.0852 56.5742 50.1128 56.2625 50.1128H56.2344V49.8455H56.3595C56.8125 49.8442 56.9432 49.5519 56.9486 49.0038V46.1042C56.9484 45.7374 56.6478 45.5157 56.3525 45.5157H56.2344V45.2492H56.2625C56.526 45.2492 56.7941 45.276 57.0537 45.276C57.2577 45.276 57.4552 45.2492 57.6884 45.2599L60.7089 48.6646V46.1331C60.7065 45.5866 60.3404 45.5201 60.1398 45.5157H59.9587V45.2492H59.9902C60.3131 45.2492 60.6303 45.276 60.9506 45.276C61.2319 45.276 61.5124 45.2492 61.7981 45.2492H61.827V45.5157H61.6943C61.4109 45.523 61.1184 45.5491 61.1127 46.3598V49.4912C61.1127 49.7322 61.1182 49.9724 61.1515 50.1818L61.1575 50.2157H61.1244ZM60.8627 50.1558H61.088C61.0589 49.9487 61.0521 49.7202 61.0521 49.4912V46.3598C61.0521 45.5324 61.3992 45.4571 61.6943 45.4553H61.7687V45.3089C61.4957 45.3109 61.2254 45.336 60.9506 45.336C60.6376 45.336 60.3303 45.3109 60.0191 45.3089V45.4553H60.1398C60.3521 45.4571 60.7672 45.5511 60.7672 46.1331L60.7599 48.7349L60.7466 48.7482L60.7247 48.7709L57.6655 45.3089C57.462 45.3089 57.2619 45.336 57.0537 45.336C56.8003 45.336 56.5422 45.3109 56.2921 45.3089V45.4553H56.3525C56.6757 45.4571 57.0077 45.7012 57.0077 46.1042V49.0038C57.0077 49.5545 56.8542 49.9062 56.3595 49.908L56.2921 49.9075V50.0537C56.5906 50.0516 56.8966 50.0263 57.1987 50.0263C57.4854 50.0263 57.7704 50.0516 58.0553 50.0537V49.908H57.9666C57.4271 49.9075 57.2918 49.671 57.2918 49.0718V46.1584L60.8627 50.1558ZM60.7247 48.7268L60.7466 48.707L60.7247 48.7268ZM60.7089 48.7133V48.7115L60.7034 48.7063L60.7089 48.7133Z" fill="#1A1919"/>
<path fill-rule="evenodd" clip-rule="evenodd" d="M62.9022 49.0994C62.8348 49.3325 62.7518 49.5133 62.7518 49.6355C62.7518 49.8426 63.0414 49.8768 63.2667 49.8768H63.3435V50.0834C63.0682 50.0685 62.7861 50.0568 62.5108 50.0568C62.2634 50.0568 62.0162 50.0685 61.7697 50.0834V49.8768H61.8088C62.0783 49.8768 62.306 49.7181 62.4065 49.4289L63.5087 46.271C63.5974 46.0156 63.7218 45.6718 63.7614 45.4165C63.9823 45.3412 64.2565 45.2044 64.389 45.1208C64.4082 45.1137 64.422 45.1067 64.4434 45.1067C64.4634 45.1067 64.4764 45.1067 64.4905 45.1283C64.5113 45.1828 64.5318 45.2448 64.5527 45.2997L65.8175 48.8998C65.8995 49.14 65.9825 49.3946 66.0723 49.6022C66.1548 49.7952 66.2989 49.8768 66.5255 49.8768H66.568V50.0834C66.2581 50.0685 65.9484 50.0568 65.6182 50.0568C65.282 50.0568 64.9378 50.0685 64.5867 50.0834V49.8768H64.663C64.8202 49.8768 65.0897 49.8494 65.0897 49.6772C65.0897 49.5884 65.0281 49.4024 64.9513 49.1812L64.6833 48.3832H63.1231L62.9022 49.0994ZM63.9073 46.0503H63.8936L63.2527 47.9982H64.5402L63.9073 46.0503Z" fill="#1A1919"/>
<path fill-rule="evenodd" clip-rule="evenodd" d="M66.5648 50.1128C66.2549 50.1005 65.9463 50.0852 65.6185 50.0852C65.2831 50.0852 64.9385 50.1005 64.5883 50.1128L64.5579 50.1144V49.8468H64.6625C64.8222 49.8468 65.059 49.8098 65.0593 49.6772C65.0611 49.5988 64.9989 49.411 64.9216 49.1913L64.6609 48.4127H63.1434L62.931 49.1082C62.8618 49.344 62.7806 49.524 62.7814 49.6355C62.7814 49.8041 63.0393 49.8468 63.2665 49.8468H63.3716V50.1144L63.3406 50.1128C63.0661 50.1005 62.7845 50.0852 62.5108 50.0852C62.2644 50.0852 62.0177 50.1005 61.7697 50.1128L61.7398 50.1144V49.8468H61.8088C62.0651 49.8455 62.2795 49.6986 62.3802 49.4193L63.4796 46.2603C63.5678 46.0055 63.6919 45.6632 63.7523 45.3891C63.9682 45.3141 64.2443 45.176 64.3781 45.0929C64.3958 45.0861 64.415 45.0778 64.4431 45.0778C64.4608 45.0762 64.497 45.0806 64.518 45.1182C64.5389 45.1723 64.5592 45.2349 64.5815 45.2904L65.8456 48.8899C65.9284 49.1309 66.0103 49.3852 66.0996 49.5905C66.1805 49.7726 66.3049 49.845 66.5248 49.8468H66.5958V50.1144L66.5648 50.1128ZM64.6162 50.0521C64.9562 50.0396 65.2906 50.0263 65.6185 50.0263C65.938 50.0263 66.237 50.0396 66.537 50.0516L66.5362 49.9075H66.5248C66.2919 49.908 66.1298 49.8163 66.0439 49.6134C65.9534 49.4055 65.8717 49.1499 65.7892 48.9097L64.5243 45.3091C64.504 45.2541 64.4821 45.1927 64.466 45.145C64.4603 45.1369 64.4608 45.1369 64.4566 45.1369H64.4431C64.4283 45.1369 64.4207 45.1416 64.4043 45.1463C64.2698 45.2304 63.9948 45.3685 63.7918 45.4209C63.7491 45.6817 63.6242 46.025 63.5358 46.2806L62.4348 49.4388C62.3302 49.7379 62.0901 49.908 61.8088 49.9075H61.7986V50.0516C62.0354 50.0396 62.2717 50.0263 62.5108 50.0263C62.777 50.0263 63.0489 50.0396 63.313 50.0516V49.9075H63.2665C63.0429 49.9044 62.7297 49.8807 62.7208 49.6355C62.7226 49.4995 62.8072 49.3239 62.8746 49.0908L62.9022 49.0994L62.8746 49.09L63.1007 48.3546H64.7031L64.9791 49.1718C65.0549 49.3932 65.1176 49.5766 65.1176 49.6772C65.1077 49.888 64.8186 49.9036 64.6625 49.9075H64.6162V50.0521ZM63.2116 48.0276L63.8717 46.0198H63.9073V46.0503L63.8995 46.0524L63.9073 46.0503V46.0198H63.9282L64.5782 48.0276H63.2116ZM63.2946 47.9677H64.4972L63.8993 46.1245L63.2946 47.9677ZM63.8787 46.0591L63.8923 46.0542L63.8787 46.0591Z" fill="#1A1919"/>
<path fill-rule="evenodd" clip-rule="evenodd" d="M68.2994 49.4084C68.2994 49.685 68.4904 49.7666 68.711 49.7952C68.9923 49.8158 69.3019 49.8158 69.6191 49.7806C69.9074 49.746 70.1549 49.5819 70.2782 49.4084C70.3875 49.2573 70.4495 49.0645 70.4916 48.9134H70.6904C70.6147 49.3057 70.5187 49.6915 70.4362 50.0834C69.8325 50.0834 69.2257 50.0568 68.6218 50.0568C68.0163 50.0568 67.4118 50.0834 66.8071 50.0834V49.8765H66.9023C67.1503 49.8765 67.4193 49.8426 67.4193 49.4159V45.8789C67.4193 45.5202 67.1503 45.4858 66.9023 45.4858H66.8071V45.2792C67.1709 45.2792 67.5289 45.3065 67.8927 45.3065C68.2439 45.3065 68.5869 45.2792 68.9384 45.2792V45.4858H68.7657C68.5044 45.4858 68.2994 45.4931 68.2994 45.8578V49.4084Z" fill="#1A1919"/>
<path fill-rule="evenodd" clip-rule="evenodd" d="M70.4365 50.1128C69.8302 50.1128 69.2247 50.0852 68.6218 50.0852C68.017 50.0852 67.4121 50.1128 66.8058 50.1128H66.7769V49.8468H66.9023C67.1508 49.8408 67.3868 49.8234 67.3897 49.4159V45.8776C67.3868 45.5425 67.1519 45.5201 66.9023 45.5157H66.7769V45.2492H66.8058C67.1719 45.2492 67.5297 45.276 67.8921 45.276C68.2421 45.276 68.5846 45.2492 68.9384 45.2492H68.966V45.5157H68.7657C68.499 45.5225 68.3335 45.5105 68.3275 45.8578V49.4084C68.3293 49.6657 68.4977 49.7345 68.7126 49.7653C68.8336 49.7736 68.9616 49.778 69.0938 49.778C69.2619 49.778 69.4365 49.7702 69.6142 49.7515C69.8942 49.7181 70.1351 49.5561 70.254 49.3919C70.3602 49.2447 70.4201 49.0561 70.4617 48.9063L70.4674 48.8837H70.7266L70.7206 48.9199C70.6428 49.3133 70.5481 49.6973 70.4648 50.0896L70.4594 50.1128H70.4365ZM70.4112 50.0534C70.4908 49.6796 70.5806 49.3141 70.655 48.9428H70.5132C70.4711 49.0926 70.4096 49.2773 70.3019 49.4271C70.1734 49.6053 69.9189 49.7736 69.6207 49.8106C69.4409 49.8288 69.2621 49.8382 69.0938 49.8382C68.9606 49.8382 68.832 49.8322 68.7069 49.8234C68.4833 49.7989 68.2671 49.7027 68.2674 49.4084V45.8578C68.2674 45.4751 68.5091 45.4553 68.7657 45.4553H68.9072V45.3089C68.5687 45.3109 68.2343 45.3367 67.8921 45.3367C67.537 45.3367 67.1885 45.3109 66.8367 45.3089V45.4553H66.9023C67.1474 45.4553 67.4475 45.4983 67.4475 45.8776V49.4159C67.4475 49.8614 67.1487 49.9075 66.9023 49.9075H66.8367V50.0534C67.4305 50.0521 68.0249 50.0263 68.6218 50.0263C69.2195 50.0263 69.8161 50.0521 70.4112 50.0534Z" fill="#1A1919"/>
<path fill-rule="evenodd" clip-rule="evenodd" d="M27.6709 20.9815C27.6709 14.5439 32.8834 9.32524 39.3131 9.32524C45.7431 9.32524 50.9555 14.5439 50.9555 20.9815C50.9555 27.4192 45.7431 32.6381 39.3131 32.6381C32.8834 32.6381 27.6709 27.4192 27.6709 20.9815Z" fill="#FFFFFE"/>
<path fill-rule="evenodd" clip-rule="evenodd" d="M46.354 20.752C46.3493 17.767 44.4857 15.2213 41.8597 14.2131V27.2905C44.4857 26.281 46.3493 23.7375 46.354 20.752ZM36.8502 27.2879V14.2144C34.2266 15.2257 32.3658 17.7678 32.3588 20.752C32.3658 23.7355 34.2266 26.2773 36.8502 27.2879ZM39.3563 9.69856C33.2591 9.7009 28.3193 14.6476 28.3183 20.752C28.3193 26.8557 33.2591 31.8016 39.3563 31.8026C45.4535 31.8016 50.3943 26.8557 50.3958 20.752C50.3943 14.6476 45.4535 9.7009 39.3563 9.69856ZM39.3292 32.8457C32.6572 32.8775 27.1658 27.4658 27.1658 20.8781C27.1658 13.6785 32.6572 8.69869 39.3292 8.7H42.4559C49.049 8.69869 55.0663 13.6761 55.0663 20.8781C55.0663 27.4635 49.049 32.8457 42.4559 32.8457H39.3292Z" fill="#0069AA"/>
<path fill-rule="evenodd" clip-rule="evenodd" d="M11.6161 49.8765H11.7127C11.9599 49.8765 12.2211 49.8426 12.2211 49.4844V45.8789C12.2211 45.5202 11.9599 45.486 11.7127 45.486H11.6161V45.2792C11.8841 45.2792 12.2966 45.3065 12.6343 45.3065C12.9778 45.3065 13.3897 45.2792 13.7129 45.2792V45.486H13.6158C13.3697 45.486 13.1079 45.5202 13.1079 45.8789V49.4844C13.1079 49.8426 13.3697 49.8765 13.6158 49.8765H13.7129V50.0834C13.3832 50.0834 12.9697 50.0568 12.6273 50.0568C12.2898 50.0568 11.8841 50.0834 11.6161 50.0834V49.8765Z" fill="#1A1919"/>
<path fill-rule="evenodd" clip-rule="evenodd" d="M13.7129 50.1128C13.3803 50.1128 12.9689 50.0852 12.6268 50.0852C12.2903 50.0852 11.886 50.1128 11.6161 50.1128H11.5862V49.8468H11.7121C11.9617 49.8408 12.1886 49.8208 12.1907 49.4844V45.8789C12.1886 45.542 11.9617 45.5201 11.7121 45.5157H11.5862V45.2492H11.6161C11.886 45.2492 12.2981 45.276 12.6343 45.276C12.9762 45.276 13.3879 45.2492 13.7129 45.2492H13.7436V45.5157H13.6171C13.3673 45.5201 13.1391 45.542 13.1378 45.8789V49.4844C13.1391 49.8208 13.3673 49.8408 13.6171 49.8468H13.7436V50.1128H13.7129ZM13.6832 50.0539L13.6835 49.9075H13.6171C13.3712 49.9075 13.079 49.8643 13.0775 49.4844V45.8789C13.079 45.4983 13.3712 45.4558 13.6171 45.4558H13.6832V45.3089C13.366 45.3091 12.9676 45.3367 12.6343 45.3367C12.3078 45.3367 11.9125 45.3109 11.6463 45.3089V45.4558H11.7121C11.9573 45.4558 12.25 45.4983 12.25 45.8789V49.4844C12.25 49.8643 11.9573 49.9075 11.7121 49.9075H11.6463V50.0539C11.9125 50.0516 12.3007 50.0263 12.6268 50.0263C12.9617 50.0263 13.359 50.0521 13.6832 50.0539Z" fill="#1A1919"/>
<path fill-rule="evenodd" clip-rule="evenodd" d="M70.6066 45.084C71.0214 45.084 71.3308 45.4029 71.3308 45.8104C71.3308 46.2176 71.0214 46.533 70.6066 46.533C70.1929 46.533 69.883 46.2176 69.883 45.8104C69.883 45.4029 70.1929 45.084 70.6066 45.084ZM70.6066 46.3984C70.9314 46.3984 71.1793 46.1219 71.1793 45.8104C71.1793 45.4983 70.9342 45.2198 70.6066 45.2198C70.2808 45.2198 70.0331 45.4983 70.0331 45.8104C70.0331 46.1219 70.2808 46.3984 70.6066 46.3984ZM70.2467 46.1925V46.1574C70.3352 46.1446 70.3519 46.147 70.3519 46.0928V45.5556C70.3519 45.48 70.3443 45.454 70.2496 45.4581V45.4212H70.6201C70.7474 45.4212 70.8647 45.4821 70.8647 45.6139C70.8647 45.7215 70.794 45.8015 70.6935 45.8325L70.8127 45.9987C70.8681 46.0738 70.9314 46.1446 70.9719 46.1696V46.1925H70.8312C70.7635 46.1925 70.7037 46.0503 70.571 45.8593H70.4908V46.0995C70.4908 46.147 70.5075 46.1446 70.5965 46.1574V46.1925H70.2467ZM70.4908 45.8104H70.5762C70.6696 45.8104 70.7128 45.7398 70.7128 45.6254C70.7128 45.5103 70.6462 45.4694 70.5715 45.4694H70.4908V45.8104Z" fill="#1A1919"/>
</svg>
