<svg xmlns="http://www.w3.org/2000/svg" width="84" height="16" viewBox="0 0 84 16" fill="none">
<g clip-path="url(#clip0_1_580)">
<path d="M-0.0100098 0.124001H15.742V15.876H-0.0100098V0.124001ZM17.054 0.124001H32.806V15.876H17.054V0.124001ZM34.119 0.124001H49.871V15.876H34.119V0.124001ZM51.183 0.124001H66.935V15.876H51.183V0.124001ZM68.248 0.124001H84V15.876H68.248V0.124001Z" fill="#01BCE4"/>
<path d="M7.86597 10.74L10.266 10.133L11.266 13.218L7.86597 10.74ZM13.379 6.753H9.16197L7.86197 2.782L6.56197 6.753H2.35297L5.76597 9.214L4.46597 13.185L7.87897 10.724L9.97897 9.214L13.379 6.753ZM24.93 10.74L27.33 10.133L28.33 13.218L24.93 10.74ZM30.443 6.753H26.227L24.927 2.782L23.627 6.753H19.417L22.83 9.214L21.53 13.185L24.943 10.724L27.043 9.214L30.443 6.753ZM41.994 10.74L44.394 10.133L45.394 13.218L41.994 10.74ZM47.507 6.753H43.291L41.991 2.782L40.691 6.753H36.482L39.895 9.214L38.595 13.185L42.008 10.724L44.108 9.214L47.507 6.753ZM59.058 10.74L61.458 10.133L62.458 13.218L59.058 10.74ZM64.571 6.753H60.353L59.053 2.782L57.753 6.753H53.546L56.959 9.214L55.663 13.182L59.076 10.721L61.176 9.211L64.571 6.753ZM76.122 10.74L78.522 10.133L79.522 13.218L76.122 10.74ZM81.635 6.753H77.42L76.12 2.782L74.82 6.753H70.611L74.024 9.214L72.724 13.185L76.137 10.724L78.237 9.214L81.635 6.753Z" fill="white"/>
</g>
<defs>
<clipPath id="clip0_1_580">
<rect width="84.01" height="15.752" fill="white" transform="translate(-0.0100098 0.124001)"/>
</clipPath>
</defs>
</svg>