<svg width="74" height="74" viewBox="0 0 74 74" fill="none" xmlns="http://www.w3.org/2000/svg">
<circle cx="37" cy="37" r="37" fill="#574CE3" fill-opacity="0.07"/>
<circle cx="37" cy="37" r="36.5" stroke="white" stroke-opacity="0.12"/>
<path d="M25.4986 29.5367C25.2795 29.1284 24.9671 28.7799 24.5942 28.5033C24.1537 28.1764 23.6281 27.9536 23.0431 27.8955C23.0382 27.895 23.0337 27.8931 23.0286 27.8926C22.8825 27.8776 22.7406 27.8871 22.598 27.8923C23.4407 28.1284 24.1834 28.7006 24.5884 29.5529L25.7858 32.071L26.5893 33.7607L29.0599 33.5278L29.6013 32.6489L28.4652 32.9468L25.4986 29.5367Z" fill="url(#paint0_linear_38_3812)"/>
<path d="M35.2577 31.6208L33.3193 30.4263C33.2009 30.3534 33.0655 30.3154 32.9281 30.3154C32.8711 30.3154 32.8136 30.3222 32.7566 30.3356C32.5647 30.3816 32.3987 30.5017 32.2952 30.6696L30.5197 33.5518C31.8131 33.8353 32.8403 34.9195 32.9718 36.3103C32.986 36.4612 32.976 36.6078 32.969 36.7549L35.5011 32.6449C35.7167 32.2949 35.6076 31.8365 35.2577 31.6208Z" fill="url(#paint1_linear_38_3812)"/>
<path d="M24.0739 42.5395C24.5679 42.042 24.9067 41.3843 24.9776 40.6317L25.0172 40.2127L24.9935 40.2149C24.8943 40.2247 24.7955 40.229 24.6975 40.229C23.4963 40.229 22.3882 39.5396 21.8649 38.4389L19.3757 33.2051L18.7301 40.042C18.6576 40.8107 18.8803 41.5325 19.2894 42.1201L21.3249 48.0858L20.5883 53.5078C20.4246 54.7102 21.2667 55.817 22.4685 55.98C22.569 55.9941 22.6689 56.0002 22.7676 56.0002C23.8493 56.0002 24.7912 55.201 24.9407 54.0998L25.7472 48.1636C25.7932 47.8253 25.7601 47.4809 25.6498 47.1586L24.0739 42.5395Z" fill="url(#paint2_linear_38_3812)"/>
<path d="M25.6782 27.1073C27.7533 26.5668 28.9974 24.4457 28.4568 22.3705C27.9164 20.2954 25.7959 19.0513 23.7207 19.5919C21.6456 20.1324 20.4015 22.2536 20.942 24.3287C21.4826 26.4037 23.6032 27.6478 25.6782 27.1073Z" fill="url(#paint3_linear_38_3812)"/>
<path d="M29.6709 34.731L25.8332 35.0933L23.4548 30.0924C23.008 29.1529 21.8828 28.7539 20.9464 29.2006C20.0068 29.6468 19.6079 30.7701 20.0547 31.7091L22.9988 37.8995C23.3126 38.5601 23.9775 38.9738 24.6983 38.9738C24.7572 38.9738 24.8166 38.9714 24.876 38.9652L30.0252 38.4792C31.0604 38.3818 31.8202 37.463 31.7222 36.428C31.6247 35.3923 30.6986 34.6226 29.6709 34.731Z" fill="url(#paint4_linear_38_3812)"/>
<path d="M55.2699 40.0418L54.3898 30.7216C54.2268 28.9958 52.6842 27.7167 50.9713 27.8927C49.764 28.0067 48.7937 28.7968 48.3684 29.8485L48.6438 29.597C49.9234 28.4295 51.9085 28.5177 53.0765 29.7974C54.2452 31.077 54.1558 33.0615 52.8761 34.2302L48.772 37.9789L49.0224 40.6315C49.0934 41.3841 49.4322 42.0418 49.9262 42.5392L48.3502 47.1583C48.2398 47.4807 48.2067 47.8251 48.2527 48.1634L49.0592 54.0995C49.2088 55.2008 50.1508 56 51.2324 56C51.3311 56 51.431 55.9939 51.5315 55.9798C52.7333 55.8168 53.5753 54.71 53.4118 53.5076L52.6751 48.0856L54.7107 42.1199C55.1198 41.5323 55.3425 40.8105 55.2699 40.0418Z" fill="url(#paint5_linear_38_3812)"/>
<path d="M48.3219 27.1074C50.397 27.6479 52.5176 26.4038 53.058 24.3287C53.5986 22.2536 52.3545 20.1324 50.2795 19.5919C48.2042 19.0513 46.0839 20.2954 45.5432 22.3705C45.0028 24.4458 46.2468 26.5669 48.3219 27.1074Z" fill="url(#paint6_linear_38_3812)"/>
<path d="M52.1497 30.6439C51.4485 29.8772 50.2566 29.8221 49.4899 30.5238L45.4708 34.1948H40.3878C39.3478 34.1948 38.5052 35.0374 38.5052 36.0775C38.5052 37.1175 39.3478 37.9602 40.3878 37.9602H46.2013C46.6714 37.9602 47.1243 37.7843 47.4711 37.4675L52.0295 33.3037C52.7975 32.6026 52.8509 31.4118 52.1497 30.6439Z" fill="url(#paint7_linear_38_3812)"/>
<path d="M39.9822 24.9357C39.9822 23.7552 39.3527 23.0351 37.7917 22.4843C36.6777 22.0644 36.2185 21.7892 36.2185 21.3565C36.2185 20.9888 36.4937 20.6224 37.3469 20.6224C37.8229 20.6224 38.2127 20.699 38.526 20.7934C38.7147 20.851 38.9194 20.8276 39.091 20.7308C39.2626 20.6339 39.3875 20.471 39.4367 20.2798L39.449 20.2327C39.5501 19.838 39.3147 19.4354 38.9212 19.3294C38.5916 19.2405 38.1962 19.1754 37.7133 19.1539V18.6422C37.7133 18.2875 37.4258 18 37.071 18C36.7156 18 36.4281 18.2875 36.4281 18.6422V19.2453C35.0252 19.5204 34.2127 20.4256 34.2127 21.5791C34.2127 22.8507 35.1693 23.5065 36.5722 23.979C37.543 24.3063 37.9627 24.6212 37.9627 25.1189C37.9627 25.6434 37.4511 25.9328 36.7039 25.9328C36.1732 25.9328 35.6732 25.8256 35.2381 25.6724C35.0516 25.6061 34.8458 25.6227 34.6717 25.7159C34.497 25.809 34.3696 25.9708 34.3205 26.162L34.3084 26.2104C34.2004 26.6321 34.4419 27.0641 34.8575 27.1941C35.2993 27.332 35.8264 27.4294 36.3626 27.4533V28.057C36.3626 28.4119 36.65 28.6993 37.0048 28.6993C37.3603 28.6993 37.6478 28.4119 37.6478 28.057V27.3614C39.1554 27.0997 39.9822 26.1026 39.9822 24.9357Z" fill="url(#paint8_linear_38_3812)"/>
<defs>
<linearGradient id="paint0_linear_38_3812" x1="26.0997" y1="27.8845" x2="26.0997" y2="33.7607" gradientUnits="userSpaceOnUse">
<stop stop-color="#00D4FE"/>
<stop offset="1" stop-color="#574CE3"/>
</linearGradient>
<linearGradient id="paint1_linear_38_3812" x1="33.0657" y1="30.3154" x2="33.0657" y2="36.7549" gradientUnits="userSpaceOnUse">
<stop stop-color="#00D4FE"/>
<stop offset="1" stop-color="#574CE3"/>
</linearGradient>
<linearGradient id="paint2_linear_38_3812" x1="22.2419" y1="33.2051" x2="22.2419" y2="56.0002" gradientUnits="userSpaceOnUse">
<stop stop-color="#00D4FE"/>
<stop offset="1" stop-color="#574CE3"/>
</linearGradient>
<linearGradient id="paint3_linear_38_3812" x1="24.6994" y1="19.4656" x2="24.6994" y2="27.2336" gradientUnits="userSpaceOnUse">
<stop stop-color="#00D4FE"/>
<stop offset="1" stop-color="#574CE3"/>
</linearGradient>
<linearGradient id="paint4_linear_38_3812" x1="25.8012" y1="29.0176" x2="25.8012" y2="38.9738" gradientUnits="userSpaceOnUse">
<stop stop-color="#00D4FE"/>
<stop offset="1" stop-color="#574CE3"/>
</linearGradient>
<linearGradient id="paint5_linear_38_3812" x1="51.758" y1="27.8765" x2="51.758" y2="56" gradientUnits="userSpaceOnUse">
<stop stop-color="#00D4FE"/>
<stop offset="1" stop-color="#574CE3"/>
</linearGradient>
<linearGradient id="paint6_linear_38_3812" x1="49.3006" y1="19.4656" x2="49.3006" y2="27.2337" gradientUnits="userSpaceOnUse">
<stop stop-color="#00D4FE"/>
<stop offset="1" stop-color="#574CE3"/>
</linearGradient>
<linearGradient id="paint7_linear_38_3812" x1="45.5738" y1="30.0312" x2="45.5738" y2="37.9602" gradientUnits="userSpaceOnUse">
<stop stop-color="#00D4FE"/>
<stop offset="1" stop-color="#574CE3"/>
</linearGradient>
<linearGradient id="paint8_linear_38_3812" x1="37.0974" y1="18" x2="37.0974" y2="28.6993" gradientUnits="userSpaceOnUse">
<stop stop-color="#00D4FE"/>
<stop offset="1" stop-color="#574CE3"/>
</linearGradient>
</defs>
</svg>
