
<svg width="29" height="31" viewBox="0 0 29 31" fill="none" xmlns="http://www.w3.org/2000/svg">
<path d="M4.65047 8C4.91136 8 5.12512 7.80816 5.16136 7.53667C5.52005 5.11853 5.84978 4.78188 8.1759 4.51764C8.44403 4.48507 8.65055 4.26063 8.65055 3.99998C8.65055 3.73574 8.44767 3.51855 8.17954 3.47873C5.8679 3.15656 5.58165 2.87421 5.16136 0.459727C5.11424 0.191856 4.90772 0 4.65047 0C4.38597 0 4.17583 0.191856 4.13235 0.463347C3.78089 2.87783 3.45117 3.21448 1.12866 3.47873C0.853293 3.51493 0.650391 3.73214 0.650391 3.99998C0.650391 4.26063 0.846047 4.47783 1.12142 4.51764C3.43668 4.84704 3.71929 5.12577 4.13235 7.54027C4.18669 7.81176 4.39684 8 4.65047 8Z" fill="url(#paint0_linear_186_20)"/>
<path d="M16.6507 28.1856C17.4333 28.1856 18.0746 27.61 18.1834 26.7956C19.2594 19.5411 20.2486 18.5312 27.227 17.7385C28.0314 17.6408 28.651 16.9674 28.651 16.1855C28.651 15.3928 28.0423 14.7412 27.2379 14.6217C20.303 13.6552 19.4442 12.8082 18.1834 5.56473C18.042 4.76112 17.4224 4.18555 16.6507 4.18555C15.8572 4.18555 15.2267 4.76112 15.0963 5.57559C14.0419 12.819 13.0528 13.829 6.08521 14.6217C5.2591 14.7303 4.65039 15.382 4.65039 16.1855C4.65039 16.9674 5.23736 17.6191 6.06347 17.7385C13.0093 18.7267 13.8571 19.5629 15.0963 26.8064C15.2593 27.6208 15.8898 28.1856 16.6507 28.1856Z" fill="url(#paint1_linear_186_20)"/>
<path d="M4.65047 31C4.91136 31 5.12512 30.8082 5.16136 30.5367C5.52005 28.1185 5.84978 27.7819 8.1759 27.5176C8.44403 27.4851 8.65055 27.2606 8.65055 27C8.65055 26.7357 8.44767 26.5186 8.17954 26.4787C5.8679 26.1566 5.58165 25.8742 5.16136 23.4597C5.11424 23.1919 4.90772 23 4.65047 23C4.38597 23 4.17583 23.1919 4.13235 23.4633C3.78089 25.8778 3.45117 26.2145 1.12866 26.4787C0.853293 26.5149 0.650391 26.7321 0.650391 27C0.650391 27.2606 0.846047 27.4778 1.12142 27.5176C3.43668 27.847 3.71929 28.1258 4.13235 30.5403C4.18669 30.8118 4.39684 31 4.65047 31Z" fill="url(#paint2_linear_186_20)"/>
<defs>
<linearGradient id="paint0_linear_186_20" x1="0.650279" y1="4" x2="8.65072" y2="4" gradientUnits="userSpaceOnUse">
<stop stop-color="#00D4FE"/>
<stop offset="0.26" stop-color="#01D1FD"/>
<stop offset="0.43" stop-color="#07C8FB"/>
<stop offset="0.57" stop-color="#10B9F8"/>
<stop offset="0.7" stop-color="#1DA5F4"/>
<stop offset="0.81" stop-color="#2F8AEF"/>
<stop offset="0.92" stop-color="#4469E8"/>
<stop offset="1" stop-color="#574CE3"/>
</linearGradient>
<linearGradient id="paint1_linear_186_20" x1="4.65006" y1="16.1855" x2="28.6515" y2="16.1855" gradientUnits="userSpaceOnUse">
<stop stop-color="#00D4FE"/>
<stop offset="0.26" stop-color="#01D1FD"/>
<stop offset="0.43" stop-color="#07C8FB"/>
<stop offset="0.57" stop-color="#10B9F8"/>
<stop offset="0.7" stop-color="#1DA5F4"/>
<stop offset="0.81" stop-color="#2F8AEF"/>
<stop offset="0.92" stop-color="#4469E8"/>
<stop offset="1" stop-color="#574CE3"/>
</linearGradient>
<linearGradient id="paint2_linear_186_20" x1="0.650279" y1="27" x2="8.65072" y2="27" gradientUnits="userSpaceOnUse">
<stop stop-color="#00D4FE"/>
<stop offset="0.26" stop-color="#01D1FD"/>
<stop offset="0.43" stop-color="#07C8FB"/>
<stop offset="0.57" stop-color="#10B9F8"/>
<stop offset="0.7" stop-color="#1DA5F4"/>
<stop offset="0.81" stop-color="#2F8AEF"/>
<stop offset="0.92" stop-color="#4469E8"/>
<stop offset="1" stop-color="#574CE3"/>
</linearGradient>
</defs>
</svg>
