<svg xmlns="http://www.w3.org/2000/svg" width="38" height="38" viewBox="0 0 38 38" fill="none">
  <path d="M5.02712 5.02919C5.02712 2.25131 7.27908 0 10.0563 0C12.8335 0 15.0855 2.25196 15.0855 5.02919C15.0855 7.80707 12.8335 10.0584 10.0563 10.0584C7.27908 10.0584 5.02712 7.80707 5.02712 5.02919ZM10.2149 35.7649C10.2149 37.0717 9.09448 38.1159 7.76084 37.9896C6.59839 37.8794 5.74435 36.8368 5.74435 35.6694V24.0294C5.74435 24.986 4.75631 25.7527 3.78782 25.7527C2.71802 25.7527 1.83289 24.8459 1.83289 23.9373V19.5589V15.6468C1.83289 13.4865 3.58449 11.7349 5.74491 11.7349H14.7853C16.9456 11.7349 18.6972 13.4865 18.6972 15.6468V19.5589V23.9373C18.6972 24.8459 17.8116 25.7527 16.7424 25.7527C15.774 25.7527 14.7858 24.986 14.7858 24.0294V35.6693C14.7858 36.8368 13.9318 37.8793 12.7694 37.9895C11.4358 38.1158 10.3153 37.0716 10.3153 35.7648L10.2149 35.7649ZM31.4125 20.5599C31.7504 21.5103 32.6486 22.1949 33.7146 22.1949C35.0689 22.1949 36.1671 21.0968 36.1671 19.7424C36.1671 18.3881 35.069 17.2899 33.7146 17.2899C32.6486 17.2899 31.7499 17.9744 31.4125 18.9249H26.9021V4.75509H31.2621C31.3117 4.75509 31.3602 4.74908 31.4076 4.74034C31.7417 5.69849 32.6431 6.39 33.7145 6.39C35.0688 6.39 36.1671 5.29183 36.1671 3.93752C36.1671 2.5832 35.0689 1.48503 33.7145 1.48503C32.6431 1.48503 31.7417 2.17662 31.4076 3.13469C31.3601 3.12595 31.3117 3.11994 31.2621 3.11994H26.0846C25.6333 3.11994 25.2672 3.48613 25.2672 3.93744V18.9248H20.9072C20.456 18.9248 20.0897 19.291 20.0897 19.7423C20.0897 20.1936 20.456 20.5597 20.9072 20.5597H25.2672V35.5471C25.2672 35.9984 25.6333 36.3647 26.0846 36.3647H31.2621C31.3117 36.3647 31.3602 36.3588 31.4076 36.3499C31.7417 37.3081 32.6431 37.9997 33.7145 37.9997C35.0688 37.9997 36.1671 36.9014 36.1671 35.547C36.1671 34.1929 35.0689 33.0946 33.7145 33.0946C32.6431 33.0946 31.7417 33.7861 31.4076 34.7443C31.3601 34.7356 31.3117 34.7295 31.2621 34.7295H26.9021V20.5599H31.4125Z" fill="url(#paint0_linear_38_3885)"/>
  <defs>
    <linearGradient id="paint0_linear_38_3885" x1="19" y1="0" x2="19" y2="38" gradientUnits="userSpaceOnUse">
      <stop stop-color="#00D4FE"/>
      <stop offset="1" stop-color="#574CE3"/>
    </linearGradient>
  </defs>
</svg>