<?xml version="1.0" encoding="UTF-8"?>
<svg version="1.1" viewBox="0 0 2048 682" width="1500" height="500" xmlns="http://www.w3.org/2000/svg">
<path transform="translate(0)" d="m0 0h2048v682h-2048z" fill="#FDFDFD"/>
<path transform="translate(805,248)" d="m0 0m-1 1m-1 1m-1 1m-1 1m-1 1m-1 1m-1 1m-1 1 2 4 4 4 2-4 2-1-1 14-5 1-1 3h2v-2h7l2 1-1-7 2-3 4 8 3-3v2h2l-1-2-4-1-1-6 1-2h2l1 3 1-3h4l3 5 5 6v5h-2l1 4-4 1-4-3 2-2 1-4-9 5-6 10 1 6 6 3 2 3 1-4h2v-12l4 1 2 4h4l4 6v4l-6 4 2 1-1 5-5 8-1 8 4 14v4l21-5h5l-5-20v-5l2 4 5 19 14-3 3 1-8 3-8 1 4 16 5 1 1 5v10l9-3h5l-1 2-11 3 1 5 6 15h3l6-4h2l-3-15v-10h2v-15l2-14 4-13 1-2 6 2 5 5 3 2-7 24-2 12 21-7 10-6 5-1-1 12-1 2h4l4-16 1-7v-19l-1-9-1-1-1 11-2 4-5 1v-3h-3l-5-5-5-2-2-4 1-6 7-19 3-13v-14h-2l-1 3 1-7 5 2 2 2 2 5 8 14 5 11-1-8-1-4 4 1 8 10h2l7 15 4 20v14l-3 15-5 12-8 12-12 14-11 9-10 7-12 6-21 6-12 2h-22l-16-3-16-6-11-6-12-9-12-12-10-15-6-14-4-14-1-6v-23l3-15 5-15 7-13 10-13z" fill="#0F5FA9"/>
<path transform="translate(859,225)" d="m0 0h28l17 4 15 6 12 7 10 8 10 10 7 10 8 16 4 12 2 9v20h-1l-4-20-7-14-5-5-5-6h-2l2 6v7l-2-2-9-19-6-9-2-4-4-2v4h2l1 3v11l-4 16-7 18 1 8 6 2 4 3v2h7l2-2 1-11 2-3 2 13v19l-4 20-2 4-4-1v-7l2-7-20 10-16 4 1-12 7-24-6-4-2-3-5-2-3 11-2 8-1 18v8l-3-1 2 15 1 8v2l-11 6-8-19 1-4 11-3-8 1-5 1-1-2v-12l-5-2-4-12v-4l15-4-16 3-5-15 3 12v4l-22 5h-4l-5-18 2-10 4-6 2-5-3 1 2-4 5-3-2-4-2-5-4 1-3-5-3-1v12h-2v6l-4-5-6-3-1-6 6-10 8-5h2l-1 5-1 1 5 2h2l-2-5h2l-1-5-6-7v-3l-4 1-1 2-2-1 1-2h-2v8l5 1v2h-3l-2 2-3-4-1-4-1 3 1 3-1 3-9-1v2h-2l1-4h5v-13l-3 4-4-2-2-4 7-8 8-7 15-9 21-7z" fill="#1563AB"/>
<path transform="translate(745,339)" d="m0 0 2 4 5 17 8 16 9 14 12 14 11 9 14 9 16 8 20 6 13 2h30l20-4 15-5 21-11 14-11 13-13 10-14 5-9 7-4 1 3-6 17-8 15-9 12-9 10-8 8-14 10-17 9-18 6-15 3-8 1h-18l-19-3-21-7-17-9-16-12-17-17-9-13-8-16-6-19-3-19z" fill="#18663A"/>
<path transform="translate(1187,316)" d="m0 0 11 2 6 4 3 3 1-8h23l1 1v68h-24l-1-7-8 6-7 2h-8l-9-3-8-6-6-10-2-7v-19l4-11 6-8 8-5z" fill="#0F5FAA"/>
<path transform="translate(1319,296)" d="m0 0h24v47h2l2-4 13-19 3-3h28l-6 9-12 15-7 9 1 5 11 13 11 14 2 4h-29l-17-25-1 20-1 5h-23l-1-4z" fill="#0F5FAA"/>
<path transform="translate(927,259)" d="m0 0 5 2 2 2 2 5 8 14 5 11-1-8-1-4 4 1 8 10h2l7 15 4 20v14l-3 15-5 12-8 12-12 14-11 9-10 7-9 5-3-1 6-5h2l2-5 10-19 6-16 5-20 1-7v-19l-1-9-1-1-1 11-2 4-5 1v-3h-3l-5-5-5-2-2-4 1-6 7-19 3-13v-14h-2l-1 3z" fill="#19673A"/>
<path transform="translate(927,263)" d="m0 0h2l1 3v11l-4 16-7 18 1 8 6 2 4 3v2h7l2-2 1-11 2-3 2 13v19l-4 20-2 4-4-1v-7l2-7-20 10-16 4 1-12 7-24-6-4-2-3-5-2-3 11-2 8-1 18v8l-3-1 2 15 1 8v2l-11 6-8-19 1-4 11-3-8 1-5 1-1-2v-12l-5-2-4-12v-4l20-5 3 3 5-15 6-14v-3l-10 3 1-8 3-3h5l-1-1 3-1 6 3 1-2 2 1v3l10-12 9-14 4-8z" fill="#FDFDFD"/>
<path transform="translate(864,264)" d="m0 0h3l8 21v2h-2l1 2h2l1 5-5 2 5-1 2 2v4h-2l2 6 3 1-3 10-2 4 1 11-18 5-3-1-4-14 3 12v4l-22 5h-4l-5-18 2-10 4-6 2-5-3 1 2-4 5-3-2-4-2-5-4 1-3-5-3-1v12h-2v6l-4-5-6-3-1-6 6-10 8-5h2l-1 5-1 1 5 2h2l-2-5h2l1-5 8-1 1 6 4 7 1-1 1-7 9-9z" fill="#F6F9FB"/>
<path transform="translate(1275,316)" d="m0 0 14 2 9 5 8 9 4 11-1 1h-25l-3-5-2-1h-6l-5 5-1 3v11l3 6 2 2h7l5-5 13-1 12 1-1 7-5 8-9 8-13 4h-10l-13-4-8-6-6-10-2-6v-19l4-10 8-9 10-5z" fill="#0F5FAA"/>
<path transform="translate(1030,300)" d="m0 0h69v19h-23v67h-24v-67h-22z" fill="#0F5FAA"/>
<path transform="translate(1108,317)" d="m0 0h24l1 10 8-7 7-3h6v25l-15 2-5 4-1 3-1 35h-24z" fill="#0F5FAA"/>
<path transform="translate(895,320)" d="m0 0 6 2 5 5 3 2-7 24-2 12 21-7 10-6 5-1-2 9-7 17-6 10-8 11-5 5-9-1v-2h4l-8-14-6-20-1-17 2-14 4-13z" fill="#18663A"/>
<path transform="translate(876,295)" d="m0 0 3 2v4h-2l2 6 3 1-3 10-2 4 1 11-18 5-3-1-8-31v-4z" fill="#FEFEFE"/>
<path transform="translate(826,346)" d="m0 0 4 1 2 11v9l7 7 2 1v2l-15 3-12 1-6-10-8-17v-3l9-2h12l5 3-1-5z" fill="#FDFDFD"/>
<path transform="translate(795,351)" d="m0 0h3l8 19 6 11-2 1h-22l-7-10-7-16-1-4z" fill="#FEFEFE"/>
<path transform="translate(770,316)" d="m0 0h17l3 14 4 5 3 14-7 1h-15l-3-1-2-10z" fill="#FEFEFE"/>
<path transform="translate(1191,338)" d="m0 0h9l6 5 2 5v7l-3 7-4 3-8 1-6-3-3-4-1-3v-9l3-6z" fill="#FEFEFE"/>
<path transform="translate(840,379)" d="m0 0 4 1 5 16v3h-18l-6-4-9-11v-1z" fill="#FEFEFE"/>
<path transform="translate(1351,405)" d="m0 0h4v31h-3v-2l-3 2h-7l-5-5-1-8 3-7 2-2h8l1 1z" fill="#19673A"/>
<path transform="translate(1270,405)" d="m0 0h4v29l-1 2-4-1-2 1h-6l-5-5-1-9 3-6 2-2h8l1 1z" fill="#19673A"/>
<path transform="translate(1289,406)" d="m0 0 4 1 5 21 6-21h4l5 18v4h2l1-10 3-12 4-1-1 8-5 20-1 2-4-1-6-20-7 21-4-1-6-25z" fill="#19673A"/>
<path transform="translate(1170,406)" d="m0 0 4 2 4 18 1 1 5-18 2-3 3 1 5 18v4h2l1-11 3-11 4-1-2 11-5 19-4-1-6-20-7 21-4-1-6-24z" fill="#19673A"/>
<path transform="translate(1213,414)" d="m0 0h8l5 5 1 3v7l-4 6-2 1h-8l-5-5-1-2v-8l4-6z" fill="#19673A"/>
<path transform="translate(882,259)" d="m0 0 3 1-4 13 1 5 4 1 3 2-1-13 2-3 1 7 4 2-1 7-5 3-4 1-5 8h-2l2-5-5-5-6-16v-4z" fill="#FEFEFE"/>
<path transform="translate(869,239)" d="m0 0 4 1 11 11 3 5-18 6h-2l-8-18v-2z" fill="#FEFEFE"/>
<path transform="translate(884,233)" d="m0 0 6 2 10 6 2 2 1 5 3 2-14 5-5-1-7-9-2-4v-1l-1-2 5-4z" fill="#FEFEFE"/>
<path transform="translate(1366,414)" d="m0 0h8l4 5 1 6-1 1h-14l2 5 5 2 4-2h3l-2 4-2 1h-8l-5-4-1-3v-8l4-6z" fill="#19673A"/>
<path transform="translate(812,254)" d="m0 0 3 1v4h7v4h-2l-1 2-2-1 1-2h-2v8l5 1v2h-3l-2 2-3-4-1-4-1 3 1 3-1 3-9-1v2h-2l1-4h5v-12z" fill="#D8E5F0"/>
<path transform="translate(826,251)" d="m0 0 4 1v2l5 2 2 3 2 6v5l-9 2-6-7-1-4z" fill="#FEFEFE"/>
<path transform="translate(891,229)" d="m0 0 10 1 15 6 3 3h-2v3l-5-1 1 6h-3l-6-5 1-7 1-2-3 3-1 3-5-2-8-4z" fill="#FEFEFE"/>
<path transform="translate(867,374)" d="m0 0 2 2 7 18v1l-14 3h-4l1-3h2l-1-5 2-1 2-12z" fill="#FEFEFE"/>
<path transform="translate(775,294)" d="m0 0 5 2 5 11v5l3-1v2l-3 1h-13l-1-1 1-9z" fill="#FEFEFE"/>
<path transform="translate(969,250)" d="m0 0 3 3 4 10 1 10-5-2-8-7-3-7v-4l8-1z" fill="#19673A"/>
<path transform="translate(823,327)" d="m0 0 2 1 4 16-9 2v-4h-2l-1 3h-4l-2-5v-5l7-4 4 1 1-1z" fill="#FCFDFD"/>
<path transform="translate(855,340)" d="m0 0h2l4 12v3l-7-1-4-4-8-2-10 1-1-4z" fill="#FEFEFE"/>
<path transform="translate(933,263)" d="m0 0 7 4 7 6 8 10 5 8-1 2-9-11h-2l2 6v7l-2-2-9-19-6-9z" fill="#FEFEFE"/>
<path transform="translate(1214,417)" d="m0 0h6l3 4v8l-5 5-5-2-2-2v-10z" fill="#FEFEFE"/>
<path transform="translate(851,314)" d="m0 0 2 4 5 19 14-3 3 1-8 3-8 1 3 11-1 3-3-7-1-6-16 4-10 1-1 3-4-3 2-2-3-13h2l3 10v4l21-5h5l-5-20z" fill="#0F5FAA"/>
<path transform="translate(998,290)" d="m0 0h8l3 1-1 8-5 9-3 3h-2z" fill="#19673A"/>
<path transform="translate(816,262)" d="m0 0h2l1 3 1-3h4l3 5 5 6v5h-2l1 4-4 1-4-3 2-2 1-4h-4l-2-3-4-1-1-6z" fill="#1965AD"/>
<path transform="translate(1343,417)" d="m0 0h6l2 2v12l-2 2h-6l-3-4v-8z" fill="#FEFEFE"/>
<path transform="translate(1262,417)" d="m0 0h6l2 2v12l-2 2h-6l-3-4v-8z" fill="#FEFEFE"/>
<path transform="translate(985,290)" d="m0 0 10 1v20l-5-3-4-6-2-6v-5z" fill="#19673A"/>
<path transform="translate(978,244)" d="m0 0 3 3 4 10-1 10-2 4h-2l-5-16-2-5 5-1z" fill="#19673A"/>
<path transform="translate(803,384)" d="m0 0h11l7 8v2l-8-1-9-3-7-4v-1z" fill="#FEFEFE"/>
<path transform="translate(882,257)" d="m0 0m-20-4h2l3 9 12-4h3v2l-10 3h-3l7 20 5 6-4 4-1-4-3 1v-3h2l-8-21v-2l-9 2 1-2 7-1z" fill="#0F5FAA"/>
<path transform="translate(1246,405)" d="m0 0h4v31h-4z" fill="#19673A"/>
<path transform="translate(857,245)" d="m0 0 3 3 6 13v2l-10 2-1-2 2-1-1-4 1-1z" fill="#FEFEFE"/>
<path transform="translate(858,228)" d="m0 0h9l14 3 1 2-8 3-5-1-11-6z" fill="#FEFEFE"/>
<path transform="translate(851,230)" d="m0 0 9 1 9 5-1 2-10 3 1-5-4 1z" fill="#FEFEFE"/>
<path transform="translate(1232,414)" d="m0 0h3v2l3-2h4v3l-5 2-1 2-1 15h-3z" fill="#19673A"/>
<path transform="translate(940,223)" d="m0 0 7 6 4 7-9-1-6-5 1-2h4z" fill="#19673A"/>
<path transform="translate(1328,414)" d="m0 0h3v22l-4-1v-20z" fill="#19673A"/>
<path transform="translate(945,217)" d="m0 0 4 2 4 5 1 2v7l-10-10v-2h2z" fill="#19673A"/>
<path transform="translate(798,337)" d="m0 0 6 5 3 6-8 1-2-5 1-4v-1z" fill="#FEFEFE"/>
<path transform="translate(1367,417)" d="m0 0h6l2 3v3h-11l1-4z" fill="#FEFEFE"/>
<path transform="translate(904,252)" d="m0 0 4 1-4 4h-2l-1 5-1 2-4-2 4-1v-3l-5-2 3-2z" fill="#F9FAFC"/>
<path transform="translate(791,265)" d="m0 0 3 1 2-1v4l3 1-2 2 2 3-4-2-7-3z" fill="#FEFEFE"/>
<path transform="translate(922,262)" d="m0 0h2l-1 7-4 8-3 2 3-9 1-7z" fill="#19673A"/>
<path transform="translate(815,262)" d="m0 0 1 2v6l5 1v2h-3l-2 2-3-4-2-7z" fill="#FEFEFE"/>
<path transform="translate(798,257)" d="m0 0 6 1 2-1-2 5-1 2-4-2-2-4z" fill="#FEFEFE"/>
<path transform="translate(875,227)" d="m0 0h11l3 2-5 2-9-3z" fill="#FEFEFE"/>
</svg>
