<svg width="182" height="80" viewBox="0 0 182 80" fill="none" xmlns="http://www.w3.org/2000/svg">
<path d="M36.4751 30.614C36.4751 37.082 31.1689 42.3256 24.6212 42.3256H13.3244V57.6421H6.50753V30.781H13.3244V35.5938H24.617C27.4005 35.5938 29.6582 33.3636 29.6582 30.614C29.6582 27.8644 27.4005 25.6342 24.617 25.6342H6.50753V25.6239H3.1377L6.50753 18.9004H24.6191C31.1668 18.9004 36.4751 24.144 36.4751 30.612V30.614Z" fill="white"/>
<path d="M107.427 57.6443H91.1499H84.333H84.3288V50.9105H84.333V25.622H80.959L84.3288 18.8984L84.333 18.917V18.9046H91.1499V50.9125H107.427V57.6464V57.6443Z" fill="white"/>
<path d="M146.228 57.644H139.421L127.584 32.4936L115.736 57.644H108.919L124.177 25.261L127.574 18.0283L130.983 25.2713L146.23 57.644H146.228Z" fill="white"/>
<path d="M166.154 42.3275H156.141V57.6441H149.324V30.7829H156.141V35.5958H167.433C170.217 35.5958 172.475 33.3656 172.475 30.616C172.475 27.8664 170.217 25.6362 167.433 25.6362H149.324V25.6259H145.954L149.324 18.9023H167.436C173.985 18.9023 179.291 24.146 179.291 30.6139C179.291 35.3443 176.445 39.411 172.358 41.2599L181.772 57.642H174.956L166.152 42.3255L166.154 42.3275Z" fill="white"/>
<path d="M75.73 31.1888C73.3763 26.3574 68.55 22.8184 63.2105 21.9279C61.8709 21.6909 60.5 21.6682 59.1479 21.7672C59.1604 20.345 59.152 18.9289 59.152 17.5088C54.958 17.7314 50.862 19.3494 47.6508 22.0228C45.3785 23.8964 43.5423 26.277 42.3258 28.9462C41.1323 31.5618 40.548 34.4516 40.6878 37.3228C40.8318 40.2765 41.7416 43.191 43.2669 45.7386C45.5475 49.5023 49.3659 52.3096 53.656 53.4309C55.4379 53.8864 57.3033 54.0739 59.1395 53.8864C59.1479 55.3127 59.1353 56.737 59.1437 58.1674C62.9267 57.9386 66.6408 56.6298 69.6851 54.3955C73.7581 51.4501 76.6481 46.9052 77.418 41.9666C78.0106 38.3142 77.3951 34.4928 75.73 31.1908V31.1888ZM59.152 49.863C52.4249 49.863 46.9664 44.4771 46.9664 37.8319C46.9664 31.1867 52.4228 25.8009 59.152 25.8009C65.8813 25.8009 71.3314 31.1867 71.3314 37.8319C71.3314 44.4771 65.8792 49.863 59.152 49.863Z" fill="url(#paint0_linear_45_3311)"/>
<path d="M54.274 64.9443V65.9626H52.3251V70.8826H51.1483V65.9626H49.2078V64.9443H54.274Z" fill="white"/>
<path d="M60.517 70.8804H59.1273L58.011 69.0831C57.8649 68.8378 57.6938 68.7615 57.3495 68.7615H56.3793V70.8825H55.1941V64.9463H57.5978C58.9541 64.9463 59.8555 65.6924 59.8555 66.8199C59.8555 67.5413 59.4173 68.1081 58.8081 68.3555C58.927 68.44 59.0313 68.5595 59.1336 68.7203L60.5149 70.8825L60.517 70.8804ZM58.6703 66.8859C58.6703 66.3252 58.2405 65.9604 57.5978 65.9604H56.3793V67.801H57.5978C58.2426 67.801 58.6703 67.4197 58.6703 66.8859Z" fill="white"/>
<path d="M67.1358 70.8805H65.8045L65.2891 69.5407H62.5849L62.0695 70.8805H60.7383L63.142 64.9443H64.7216L67.1337 70.8805H67.1358ZM64.9219 68.5823L63.9349 66.012L62.948 68.5823H64.9219Z" fill="white"/>
<path d="M67.9683 64.9443H70.4576C72.3647 64.9443 73.6354 66.1316 73.6354 67.9124C73.6354 69.6933 72.3647 70.8805 70.4576 70.8805H67.9683V64.9443ZM72.4586 67.9124C72.4586 66.7417 71.6594 65.9626 70.4576 65.9626H69.1534V69.8644H70.4576C71.6594 69.8644 72.4586 69.0852 72.4586 67.9145V67.9124Z" fill="white"/>
<path d="M75.9369 64.9443V70.8805H74.7517V64.9443H75.9369Z" fill="white"/>
<path d="M83.0627 64.9443V70.8805H81.5436L78.5807 66.4449V70.8805H77.3955V64.9443H78.8978L81.8858 69.3965V64.9443H83.0627Z" fill="white"/>
<path d="M87.4841 67.7254H90.5055V68.0304C90.5055 69.7865 89.2681 70.9655 87.4236 70.9655C85.4747 70.9655 84.179 69.7453 84.179 67.9129C84.179 66.0806 85.4747 64.8604 87.4236 64.8604C89.072 64.8604 90.2321 65.726 90.4638 67.0658H89.2535C89.0386 66.3362 88.3605 65.8786 87.4257 65.8786C86.1883 65.8786 85.3641 66.6927 85.3641 67.915C85.3641 69.1373 86.1883 69.9494 87.4257 69.9494C88.4565 69.9494 89.1847 69.432 89.314 68.6179H87.4862V67.7274L87.4841 67.7254Z" fill="white"/>
<path d="M97.8398 69.1328C97.8398 70.2356 96.9634 70.9652 95.651 70.9652C94.2592 70.9652 93.4705 70.1758 93.4434 69.0318H94.6369C94.6619 69.6172 95.0313 69.947 95.7449 69.947C96.2936 69.947 96.6546 69.6584 96.6546 69.2338C96.6546 68.869 96.4147 68.6485 95.8471 68.4959L95.1168 68.3084C94.0172 68.0281 93.5456 67.5292 93.5456 66.645C93.5456 65.5691 94.3865 64.8477 95.6489 64.8477C96.9113 64.8477 97.7271 65.7051 97.7522 66.713H96.5503C96.5169 66.2039 96.1726 65.8638 95.58 65.8638C95.0646 65.8638 94.7224 66.1359 94.7224 66.5337C94.7224 66.8903 94.9374 67.0943 95.434 67.2118L96.2415 67.4241C97.3578 67.7127 97.8377 68.2218 97.8377 69.1287L97.8398 69.1328Z" fill="white"/>
<path d="M102.708 64.9443V65.9626H100.202V67.3621H102.708V68.3803H100.202V69.8644H102.708V70.8826H99.0166V64.9464H102.708V64.9443Z" fill="white"/>
<path d="M109.343 70.8804H107.953L106.837 69.0831C106.691 68.8378 106.52 68.7615 106.176 68.7615H105.205V70.8825H104.02V64.9463H106.424C107.78 64.9463 108.682 65.6924 108.682 66.8199C108.682 67.5413 108.244 68.1081 107.634 68.3555C107.753 68.44 107.857 68.5595 107.96 68.7203L109.341 70.8825L109.343 70.8804ZM107.499 66.8859C107.499 66.3252 107.069 65.9604 106.426 65.9604H105.208V67.801H106.426C107.071 67.801 107.499 67.4197 107.499 66.8859Z" fill="white"/>
<path d="M115.981 64.9443L113.577 70.8805H111.972L109.569 64.9443H110.96L112.772 69.7963L114.591 64.9443H115.983H115.981Z" fill="white"/>
<path d="M118.007 64.9443V70.8805H116.822V64.9443H118.007Z" fill="white"/>
<path d="M119.123 67.9129C119.123 66.0806 120.419 64.8604 122.368 64.8604C124.033 64.8604 125.218 65.7838 125.466 67.2348H124.264C124.041 66.4042 123.338 65.8786 122.368 65.8786C121.13 65.8786 120.306 66.6927 120.306 67.915C120.306 69.1373 121.13 69.9494 122.368 69.9494C123.338 69.9494 124.041 69.4238 124.264 68.5931H125.466C125.218 70.0442 124.033 70.9676 122.368 70.9676C120.419 70.9676 119.123 69.7474 119.123 67.915V67.9129Z" fill="white"/>
<path d="M130.276 64.9443V65.9626H127.77V67.3621H130.276V68.3803H127.77V69.8644H130.276V70.8826H126.585V64.9464H130.276V64.9443Z" fill="white"/>
<path d="M135.703 69.1328C135.703 70.2356 134.827 70.9652 133.514 70.9652C132.122 70.9652 131.334 70.1758 131.307 69.0318H132.5C132.525 69.6172 132.895 69.947 133.608 69.947C134.157 69.947 134.518 69.6584 134.518 69.2338C134.518 68.869 134.278 68.6485 133.71 68.4959L132.98 68.3084C131.88 68.0281 131.409 67.5292 131.409 66.645C131.409 65.5691 132.25 64.8477 133.512 64.8477C134.775 64.8477 135.59 65.7051 135.615 66.713H134.414C134.38 66.2039 134.036 65.8638 133.443 65.8638C132.928 65.8638 132.586 66.1359 132.586 66.5337C132.586 66.8903 132.801 67.0943 133.297 67.2118L134.105 67.4241C135.221 67.7127 135.701 68.2218 135.701 69.1287L135.703 69.1328Z" fill="white"/>
<defs>
<linearGradient id="paint0_linear_45_3311" x1="40.667" y1="37.8381" x2="77.6392" y2="37.8381" gradientUnits="userSpaceOnUse">
<stop stop-color="#00D4FE"/>
<stop offset="0.26" stop-color="#01D1FD"/>
<stop offset="0.43" stop-color="#07C8FB"/>
<stop offset="0.57" stop-color="#10B9F8"/>
<stop offset="0.7" stop-color="#1DA5F4"/>
<stop offset="0.81" stop-color="#2F8AEF"/>
<stop offset="0.92" stop-color="#4469E8"/>
<stop offset="1" stop-color="#574CE3"/>
</linearGradient>
</defs>
</svg>
