<svg xmlns="http://www.w3.org/2000/svg" width="38" height="38" viewBox="0 0 38 38" fill="none">
  <g clip-path="url(#clip0_38_3854)">
    <path d="M25.8286 0.0199239C25.2473 -0.062444 24.6574 0.12028 24.2143 0.50561C23.7713 0.893781 23.5185 1.45237 23.5185 2.0422V26.7942C22.0955 26.1874 20.3819 25.838 18.4931 25.838C13.3039 25.838 9.39001 28.4529 9.39001 31.9181C9.39001 35.3851 13.3039 38 18.4931 38C23.6832 38 27.5971 35.3851 27.5971 31.9181V4.63821C29.6601 5.32177 32.3489 6.71255 32.2949 9.30856C32.2712 10.4343 33.165 11.3659 34.2897 11.3895C34.3049 11.3895 34.3191 11.3895 34.3342 11.3895C35.441 11.3895 36.3499 10.5043 36.3717 9.39377C36.5023 3.12434 29.8059 0.552002 25.8286 0.0199239Z" fill="url(#paint0_linear_38_3854)"/>
    <path d="M17.3787 11.6746H3.44057C2.43796 11.6746 1.62659 10.8623 1.62659 9.86062C1.62659 8.85895 2.43796 8.04663 3.44057 8.04663H17.3787C18.3804 8.04663 19.1918 8.85895 19.1918 9.86062C19.1918 10.8623 18.3795 11.6746 17.3787 11.6746Z" fill="url(#paint1_linear_38_3854)"/>
    <path d="M17.3787 17.1136H3.44057C2.43796 17.1136 1.62659 16.3013 1.62659 15.3006C1.62659 14.2989 2.43796 13.4866 3.44057 13.4866H17.3787C18.3804 13.4866 19.1918 14.2989 19.1918 15.3006C19.1918 16.3013 18.3795 17.1136 17.3787 17.1136Z" fill="url(#paint2_linear_38_3854)"/>
    <path d="M17.3787 22.5528H3.44057C2.43796 22.5528 1.62659 21.7405 1.62659 20.7388C1.62659 19.7381 2.43796 18.9258 3.44057 18.9258H17.3787C18.3804 18.9258 19.1918 19.7381 19.1918 20.7388C19.1918 21.7405 18.3795 22.5528 17.3787 22.5528Z" fill="url(#paint3_linear_38_3854)"/>
  </g>
  <defs>
    <linearGradient id="paint0_linear_38_3854" x1="22.8818" y1="0.000488281" x2="22.8818" y2="38" gradientUnits="userSpaceOnUse">
      <stop stop-color="#00D4FE"/>
      <stop offset="1" stop-color="#574CE3"/>
    </linearGradient>
    <linearGradient id="paint1_linear_38_3854" x1="10.4092" y1="8.04663" x2="10.4092" y2="11.6746" gradientUnits="userSpaceOnUse">
      <stop stop-color="#00D4FE"/>
      <stop offset="1" stop-color="#574CE3"/>
    </linearGradient>
    <linearGradient id="paint2_linear_38_3854" x1="10.4092" y1="13.4866" x2="10.4092" y2="17.1136" gradientUnits="userSpaceOnUse">
      <stop stop-color="#00D4FE"/>
      <stop offset="1" stop-color="#574CE3"/>
    </linearGradient>
    <linearGradient id="paint3_linear_38_3854" x1="10.4092" y1="18.9258" x2="10.4092" y2="22.5528" gradientUnits="userSpaceOnUse">
      <stop stop-color="#00D4FE"/>
      <stop offset="1" stop-color="#574CE3"/>
    </linearGradient>
    <clipPath id="clip0_38_3854">
      <rect width="38" height="38" fill="white"/>
    </clipPath>
  </defs>
</svg>