<svg width="269" height="62" viewBox="0 0 269 62" fill="none" xmlns="http://www.w3.org/2000/svg">
<path d="M50.7131 19.9203C50.7131 29.6223 42.7538 37.4877 32.9323 37.4877H15.9871V60.4625H5.76179V20.1708H15.9871V27.39H32.926C37.1013 27.39 40.4878 24.0447 40.4878 19.9203C40.4878 15.7959 37.1013 12.4506 32.926 12.4506H5.76179V12.4352H0.707031L5.76179 2.34988H32.9292C42.7507 2.34988 50.7131 10.2153 50.7131 19.9172V19.9203Z" fill="white"/>
<path d="M157.142 60.4656H132.726H122.5H122.494V50.3648H122.5V12.4321H117.439L122.494 2.34677L122.5 2.3746V2.35605H132.726V50.3679H157.142V60.4687V60.4656Z" fill="white"/>
<path d="M215.342 60.4656H205.132L187.377 22.74L169.605 60.4656H159.38L182.266 11.891L187.361 1.04205L192.475 11.9065L215.345 60.4656H215.342Z" fill="white"/>
<path d="M245.232 37.4908H230.212V60.4656H219.986V20.1738H230.212V27.3931H247.151C251.326 27.3931 254.712 24.0478 254.712 19.9234C254.712 15.799 251.326 12.4537 247.151 12.4537H219.986V12.4383H214.932L219.986 2.35297H247.154C256.978 2.35297 264.938 10.2184 264.938 19.9203C264.938 27.0159 260.669 33.1159 254.537 35.8892L268.659 60.4625H258.434L245.229 37.4877L245.232 37.4908Z" fill="white"/>
<path d="M109.596 20.7829C106.065 13.5358 98.8258 8.2273 90.8164 6.89166C88.807 6.53611 86.7507 6.5021 84.7225 6.65051C84.7413 4.5172 84.7288 2.39316 84.7288 0.262939C78.4377 0.596849 72.2938 3.02387 67.4769 7.03388C64.0684 9.84429 61.3142 13.4153 59.4894 17.4191C57.6991 21.3425 56.8228 25.6772 57.0325 29.984C57.2484 34.4145 58.6131 38.7862 60.901 42.6076C64.322 48.2532 70.0496 52.4641 76.4847 54.146C79.1576 54.8293 81.9557 55.1107 84.71 54.8293C84.7225 56.9688 84.7038 59.1052 84.7163 61.2509C90.3907 60.9077 95.9619 58.9445 100.528 55.593C106.638 51.1749 110.973 44.3576 112.128 36.9497C113.017 31.4711 112.093 25.739 109.596 20.786V20.7829ZM84.7288 48.7942C74.6381 48.7942 66.4503 40.7155 66.4503 30.7476C66.4503 20.7798 74.6349 12.7011 84.7288 12.7011C94.8227 12.7011 102.998 20.7798 102.998 30.7476C102.998 40.7155 94.8195 48.7942 84.7288 48.7942Z" fill="url(#paint0_linear_481_64)"/>
<defs>
<linearGradient id="paint0_linear_481_64" x1="57.0012" y1="30.7569" x2="112.46" y2="30.7569" gradientUnits="userSpaceOnUse">
<stop stop-color="#00D4FE"/>
<stop offset="0.26" stop-color="#01D1FD"/>
<stop offset="0.43" stop-color="#07C8FB"/>
<stop offset="0.57" stop-color="#10B9F8"/>
<stop offset="0.7" stop-color="#1DA5F4"/>
<stop offset="0.81" stop-color="#2F8AEF"/>
<stop offset="0.92" stop-color="#4469E8"/>
<stop offset="1" stop-color="#574CE3"/>
</linearGradient>
</defs>
</svg>
