<svg xmlns="http://www.w3.org/2000/svg" width="74" height="74" viewBox="0 0 74 74" fill="none">
  <circle cx="37" cy="37" r="37" fill="#574CE3" fill-opacity="0.07"/>
  <circle cx="37" cy="37" r="36.5" stroke="white" stroke-opacity="0.12"/>
  <path fill-rule="evenodd" clip-rule="evenodd" d="M12 37C12 23.1929 23.1929 12 37 12C50.807 12 62 23.1929 62 37C62 50.807 50.807 62 37 62C23.1929 62 12 50.807 12 37ZM36.9998 22C31.4769 22 26.9998 26.4771 26.9998 32C26.9998 37.5228 31.4769 42 36.9998 42C42.5225 42 46.9997 37.5228 46.9997 32C46.9997 26.4771 42.5225 22 36.9998 22ZM49.7787 46.9935C51.6732 48.2135 51.5807 50.8727 49.8555 52.322C46.3792 55.2415 41.8953 57 37.0002 57C32.1378 57 27.6804 55.2648 24.2139 52.3795C22.4733 50.9308 22.3811 48.258 24.2838 47.03C24.8761 46.6477 25.5211 46.3128 26.2212 46.0243C29.0379 44.863 32.6355 44.5 37 44.5C41.3865 44.5 45.0045 44.8397 47.8285 45.9885C48.534 46.2755 49.1835 46.6103 49.7787 46.9935Z" fill="url(#paint0_linear_38_3909)"/>
  <defs>
    <linearGradient id="paint0_linear_38_3909" x1="37" y1="12" x2="37" y2="62" gradientUnits="userSpaceOnUse">
      <stop stop-color="#00D4FE"/>
      <stop offset="1" stop-color="#574CE3"/>
    </linearGradient>
  </defs>
</svg>