<svg xmlns="http://www.w3.org/2000/svg" width="60" height="60" viewBox="0 0 60 60" fill="none">
  <path d="M35.7143 25.25C39.7382 25.25 43 22.06 43 18.125C43 14.19 39.7382 11 35.7143 11C31.6905 11 28.4286 14.19 28.4286 18.125C28.4286 18.6563 28.488 19.174 28.6008 19.6721L20.8238 24.4256C19.5788 23.455 18.0015 22.875 16.2857 22.875C12.2619 22.875 9 26.065 9 30C9 33.935 12.2619 37.125 16.2857 37.125C18.0015 37.125 19.5788 36.545 20.8238 35.5744L28.6008 40.3279C28.488 40.826 28.4286 41.3437 28.4286 41.875C28.4286 45.8101 31.6905 49 35.7143 49C39.7382 49 43 45.8101 43 41.875C43 37.9399 39.7382 34.75 35.7143 34.75C33.9985 34.75 32.4211 35.33 31.1762 36.3006L23.3992 31.5471C23.512 31.049 23.5714 30.5313 23.5714 30C23.5714 29.4687 23.512 28.951 23.3992 28.4529L31.1762 23.6994C32.4211 24.67 33.9985 25.25 35.7143 25.25Z" fill="url(#paint0_linear_38_3832)"/>
  <defs>
    <linearGradient id="paint0_linear_38_3832" x1="26" y1="11" x2="26" y2="49" gradientUnits="userSpaceOnUse">
      <stop stop-color="#00D4FE"/>
      <stop offset="1" stop-color="#574CE3"/>
    </linearGradient>
  </defs>
</svg>