<svg xmlns="http://www.w3.org/2000/svg" width="74" height="74" viewBox="0 0 74 74" fill="none">
  <circle cx="37" cy="37" r="37" fill="#574CE3" fill-opacity="0.07"/>
  <circle cx="37" cy="37" r="36.5" stroke="white" stroke-opacity="0.12"/>
  <path d="M37.0594 46.9644H35.5231L34.0519 48.4671L34.1276 48.721H38.455L38.5306 48.4671L37.0594 46.9644Z" fill="url(#paint0_linear_38_3930)"/>
  <path d="M55.9138 19H17.7472C17.3345 19.0001 16.9999 19.3346 16.9999 19.7473V20.4658C16.9999 20.8784 17.3345 21.213 17.7472 21.213H23.4588L25.8873 35.1732C25.67 35.2557 25.4716 35.3959 25.3193 35.5934C24.8805 36.1623 24.9859 36.9791 25.5548 37.4177L26.3898 38.0617L27.7578 45.9254C27.3747 46.1957 27.1239 46.6409 27.1239 47.1452C27.1239 47.9774 27.6301 48.5242 28.2666 48.6775L28.2096 48.4869C27.9062 47.4697 28.146 46.4883 29.0885 45.5256L28.0071 39.309L30.3035 41.0803C30.6959 41.3829 31.2254 41.4357 31.6688 41.2191C32.1133 41.0019 32.3962 40.5516 32.3986 40.0569L32.4166 36.4982V36.4981C32.4221 36.3349 32.5575 36.2063 32.7207 36.2092C32.8839 36.212 33.0146 36.3451 33.0146 36.5084C33.0146 38.0984 33.0146 42.4358 33.0146 43.2895L29.7796 46.5939C29.3827 46.9995 29.237 47.5883 29.3992 48.1321L31.1147 53.8841C31.3612 54.7105 32.2308 55.18 33.0566 54.9337C33.8827 54.6873 34.3526 53.8179 34.1062 52.9918L32.6534 48.121L34.8396 45.8879C36.4102 45.8879 37.0659 45.8879 37.3134 45.8879C37.4116 45.8879 37.4459 45.8879 37.447 45.8879C37.5132 45.8879 37.6085 45.8879 37.7428 45.8879L39.929 48.121L38.4761 52.9918C38.2297 53.8179 38.6996 54.6873 39.5256 54.9337C40.3524 55.1801 41.2213 54.7096 41.4675 53.8841L43.1832 48.1321C43.3454 47.5883 43.1998 46.9995 42.8028 46.5939L39.904 43.6331C39.904 42.9076 39.904 38.1683 39.904 36.494C39.904 36.3436 40.026 36.2218 40.1762 36.2218C40.3266 36.2218 40.4484 36.3437 40.4484 36.4941C40.4484 36.4955 40.4484 36.4969 40.4484 36.4983L40.4664 40.0569C40.4689 40.5515 40.7517 41.002 41.1962 41.2191C41.6395 41.4356 42.169 41.3831 42.5615 41.0803L45.1668 39.0708L44.022 45.6521H43.6178C44.4635 46.5159 44.6483 47.5627 44.3727 48.4869L44.303 48.7206C45.1628 48.7206 45.8718 48.1455 45.8718 47.1452C45.8718 46.6958 45.6724 46.2938 45.3583 46.0201L46.7841 37.8233L47.3102 37.4175C47.8791 36.9788 47.9845 36.162 47.5458 35.5932C47.4534 35.4734 47.3436 35.3755 47.2234 35.2975L49.6735 21.2129H55.9137C56.3264 21.2129 56.661 20.8783 56.661 20.4656V19.7471C56.6611 19.3346 56.3265 19 55.9138 19ZM45.8254 35.2857C45.7392 35.3399 45.9231 35.2023 43.0547 37.4146L43.05 36.4853C43.0415 34.7965 41.6607 33.4227 39.9719 33.4227C39.5532 33.4227 35.821 33.4227 32.8931 33.4227C31.2043 33.4227 29.8234 34.7967 29.815 36.4853L29.8103 37.4146L27.3469 35.5145L24.859 21.213H48.2734L45.8254 35.2857Z" fill="url(#paint1_linear_38_3930)"/>
  <path d="M36.4916 32.4429C38.3648 32.4429 39.8834 30.9243 39.8834 29.0511C39.8834 27.1778 38.3648 25.6592 36.4916 25.6592C34.6183 25.6592 33.0997 27.1778 33.0997 29.0511C33.0997 30.9243 34.6183 32.4429 36.4916 32.4429Z" fill="url(#paint2_linear_38_3930)"/>
  <defs>
    <linearGradient id="paint0_linear_38_3930" x1="36.2913" y1="46.9644" x2="36.2913" y2="48.721" gradientUnits="userSpaceOnUse">
      <stop stop-color="#00D4FE"/>
      <stop offset="1" stop-color="#574CE3"/>
    </linearGradient>
    <linearGradient id="paint1_linear_38_3930" x1="36.8305" y1="19" x2="36.8305" y2="54.9992" gradientUnits="userSpaceOnUse">
      <stop stop-color="#00D4FE"/>
      <stop offset="1" stop-color="#574CE3"/>
    </linearGradient>
    <linearGradient id="paint2_linear_38_3930" x1="36.4916" y1="25.6592" x2="36.4916" y2="32.4429" gradientUnits="userSpaceOnUse">
      <stop stop-color="#00D4FE"/>
      <stop offset="1" stop-color="#574CE3"/>
    </linearGradient>
  </defs>
</svg>